<?xml version="1.0" encoding="utf-8"?>
<!-- Generator: Adobe Illustrator 24.1.1, SVG Export Plug-In . SVG Version: 6.00 Build 0)  -->
<svg version="1.1" id="Layer_1" xmlns="http://www.w3.org/2000/svg" xmlns:xlink="http://www.w3.org/1999/xlink" x="0px" y="0px"
	 viewBox="0 0 55.3 47.4" style="enable-background:new 0 0 55.3 47.4;" xml:space="preserve">
<style type="text/css">
	.st0{fill:none;stroke:#FFFFFF;stroke-width:2.212044e-02;stroke-miterlimit:10;stroke-opacity:0;}
	.st1{fill:#FFFFFF;}
</style>
<polygon points="22.2,45.6 22.1,45.5 22,45.4 21.8,45.3 21.7,45.2 21.6,45.1 21.4,45 21.3,44.9 21.7,44.5 22,44.2 22.4,43.9 
	22.7,43.6 23,43.3 23.4,43.1 23.8,42.8 24.1,42.6 24.4,42.3 24.8,42.1 25.1,41.9 25.4,41.7 25.8,41.5 26.2,41.3 26.6,41.1 27,40.9 
	27,40.9 27,40.9 26.5,40.8 26,40.8 25.6,40.8 25.2,40.9 24.8,41.1 24.4,41.2 24.1,41.4 23.7,41.6 23.4,41.9 23,42.1 22.7,42.4 
	22.4,42.6 22,42.9 21.7,43.1 21.3,43.3 21,43.4 20.6,43.6 20.2,43.8 19.8,43.9 19.3,44 18.9,44.1 18.5,44.1 18,44.1 17.6,44.1 
	17.2,44.1 16.7,44.1 16.3,44 15.9,43.9 15.4,43.7 15.1,43.6 14.7,43.4 14.3,43.2 14.1,43.1 13.9,43 13.7,42.8 13.5,42.7 13.4,42.6 
	13.3,42.5 13.1,42.4 12.9,42.2 12.7,42.1 12.6,42 12.5,41.8 12.4,41.6 12.6,41.7 12.7,41.8 12.9,41.9 13.1,42 13.5,42.2 14,42.4 
	14.5,42.5 15,42.6 15.5,42.6 16.1,42.6 16.6,42.6 17.1,42.5 17.6,42.4 18.2,42.3 18.6,42.1 19.2,42 19.6,41.7 20.1,41.6 20.6,41.3 
	21,41.1 21.5,40.9 22,40.7 22.5,40.5 23,40.4 23.6,40.3 24.1,40.2 24.6,40.2 25.2,40.1 25.5,40.1 25.8,40.2 26.2,40.2 26.6,40.2 
	26.9,40.3 27.3,40.4 27.6,40.4 28,40.5 28.5,40.4 29,40.3 29.5,40.2 30.1,40.1 30.6,40.1 31.1,40.1 31.7,40.1 32.2,40.2 32.3,40.2 
	32.5,40.3 32.6,40.3 32.7,40.3 32.9,40.3 33,40.4 33.1,40.4 33.3,40.4 33.9,40.7 34.5,40.9 35.1,41.2 35.8,41.4 36.5,41.7 
	37.1,41.9 37.8,42.1 38.5,42.3 39.2,42.4 39.8,42.4 40.5,42.5 41.1,42.4 41.8,42.3 42.4,42.1 43,41.8 43.6,41.4 43.6,41.5 
	43.5,41.6 43.5,41.6 43.4,41.7 43.1,42 42.7,42.3 42.4,42.6 42,42.9 41.6,43.1 41.2,43.3 40.7,43.5 40.3,43.7 39.7,43.8 39.2,44 
	38.6,44 38,44 37.5,44 36.9,43.9 36.4,43.8 35.9,43.6 35.3,43.4 34.8,43.2 34.3,43 33.9,42.7 33.4,42.4 33,42.2 32.6,41.9 
	32.2,41.6 32.1,41.5 32,41.4 31.8,41.4 31.7,41.3 31.6,41.2 31.5,41.2 31.4,41.1 31.3,41 31,40.9 30.7,40.9 30.4,40.8 30.2,40.8 
	29.9,40.8 29.6,40.8 29.3,40.9 29,40.9 29.4,41.1 29.8,41.3 30.2,41.5 30.6,41.7 30.9,41.9 31.3,42.1 31.6,42.4 32,42.6 32.3,42.8 
	32.7,43.1 33,43.3 33.3,43.6 33.7,43.9 34,44.2 34.3,44.5 34.7,44.8 33.6,45.7 33.5,45.6 33.3,45.4 33.2,45.3 33,45.1 32.7,44.8 
	32.5,44.5 32.1,44.2 31.8,43.9 31.5,43.6 31.3,43.4 30.9,43.1 30.6,42.8 30.3,42.6 30,42.4 29.7,42.1 29.4,41.9 29,41.7 28.7,41.6 
	28.3,41.4 28,41.2 27.6,41.4 27.2,41.6 26.8,41.8 26.4,42 26,42.3 25.7,42.5 25.3,42.8 25,43.1 24.6,43.4 24.3,43.7 24,44 
	23.6,44.4 23.3,44.7 23,45 22.7,45.4 22.4,45.7 "/>
<polygon class="st0" points="22.4,45.7 22.7,45.4 23,45 23.3,44.7 23.6,44.4 24,44 24.3,43.7 24.6,43.4 25,43.1 25.3,42.8 
	25.7,42.5 26,42.3 26.4,42 26.8,41.8 27.2,41.6 27.6,41.4 28,41.2 28.3,41.4 28.7,41.6 29,41.7 29.4,41.9 29.7,42.1 30,42.4 
	30.3,42.6 30.6,42.8 30.9,43.1 31.3,43.4 31.5,43.6 31.8,43.9 32.1,44.2 32.5,44.5 32.7,44.8 33,45.1 33.2,45.3 33.3,45.4 
	33.5,45.6 33.6,45.7 34.7,44.8 34.3,44.5 34,44.2 33.7,43.9 33.3,43.6 33,43.3 32.7,43.1 32.3,42.8 32,42.6 31.6,42.4 31.3,42.1 
	30.9,41.9 30.6,41.7 30.2,41.5 29.8,41.3 29.4,41.1 29,40.9 29.3,40.9 29.6,40.8 29.9,40.8 30.2,40.8 30.4,40.8 30.7,40.9 31,40.9 
	31.3,41 31.4,41.1 31.5,41.2 31.6,41.2 31.7,41.3 31.8,41.4 32,41.4 32.1,41.5 32.2,41.6 32.6,41.9 33,42.2 33.4,42.4 33.9,42.7 
	34.3,43 34.8,43.2 35.3,43.4 35.9,43.6 36.4,43.8 36.9,43.9 37.5,44 38,44 38.6,44 39.2,44 39.7,43.8 40.3,43.7 40.7,43.5 
	41.2,43.3 41.6,43.1 42,42.9 42.4,42.6 42.7,42.3 43.1,42 43.4,41.7 43.5,41.6 43.5,41.6 43.6,41.5 43.6,41.4 43,41.8 42.4,42.1 
	41.8,42.3 41.1,42.4 40.5,42.5 39.8,42.4 39.2,42.4 38.5,42.3 37.8,42.1 37.1,41.9 36.5,41.7 35.8,41.4 35.1,41.2 34.5,40.9 
	33.9,40.7 33.3,40.4 33.1,40.4 33,40.4 32.9,40.3 32.7,40.3 32.6,40.3 32.5,40.3 32.3,40.2 32.2,40.2 31.7,40.1 31.1,40.1 
	30.6,40.1 30.1,40.1 29.5,40.2 29,40.3 28.5,40.4 28,40.5 27.6,40.4 27.3,40.4 26.9,40.3 26.6,40.2 26.2,40.2 25.8,40.2 25.5,40.1 
	25.2,40.1 24.6,40.2 24.1,40.2 23.6,40.3 23,40.4 22.5,40.5 22,40.7 21.5,40.9 21,41.1 20.6,41.3 20.1,41.6 19.6,41.7 19.2,42 
	18.6,42.1 18.2,42.3 17.6,42.4 17.1,42.5 16.6,42.6 16.1,42.6 15.5,42.6 15,42.6 14.5,42.5 14,42.4 13.5,42.2 13.1,42 12.9,41.9 
	12.7,41.8 12.6,41.7 12.4,41.6 12.5,41.8 12.6,42 12.7,42.1 12.9,42.2 13.1,42.4 13.3,42.5 13.4,42.6 13.5,42.7 13.7,42.8 13.9,43 
	14.1,43.1 14.3,43.2 14.7,43.4 15.1,43.6 15.4,43.7 15.9,43.9 16.3,44 16.7,44.1 17.2,44.1 17.6,44.1 18,44.1 18.5,44.1 18.9,44.1 
	19.3,44 19.8,43.9 20.2,43.8 20.6,43.6 21,43.4 21.3,43.3 21.7,43.1 22,42.9 22.4,42.6 22.7,42.4 23,42.1 23.4,41.9 23.7,41.6 
	24.1,41.4 24.4,41.2 24.8,41.1 25.2,40.9 25.6,40.8 26,40.8 26.5,40.8 27,40.9 27,40.9 27,40.9 26.6,41.1 26.2,41.3 25.8,41.5 
	25.4,41.7 25.1,41.9 24.8,42.1 24.4,42.3 24.1,42.6 23.8,42.8 23.4,43.1 23,43.3 22.7,43.6 22.4,43.9 22,44.2 21.7,44.5 21.3,44.9 
	21.4,45 21.6,45.1 21.7,45.2 21.8,45.3 22,45.4 22.1,45.5 22.2,45.6 "/>
<polygon points="14.8,41.5 14.4,41.4 14,41.4 13.6,41.3 13.2,41.2 12.8,41.2 12.5,41 12.1,40.9 11.7,40.7 11.2,40.5 10.7,40.1 
	10.2,39.8 9.7,39.4 9.3,38.9 8.9,38.4 8.5,38 8.2,37.4 8.5,37.8 8.8,38 9.2,38.3 9.5,38.5 9.9,38.7 10.3,38.9 10.7,39 11.1,39.1 
	11.5,39.2 12,39.3 12.4,39.4 12.9,39.4 13.3,39.5 13.8,39.5 14.2,39.5 14.6,39.5 14.9,39.6 15.1,39.6 15.4,39.6 15.7,39.6 16,39.7 
	16.2,39.7 16.5,39.8 16.8,39.8 17,39.8 17.3,39.9 17.6,39.9 17.9,39.9 18.2,40 18.4,40 18.7,40 19,40.1 19,40 18.9,40 18.9,40 
	18.7,40 18.5,39.9 18.3,39.8 18.1,39.8 17.9,39.7 17.7,39.6 17.5,39.6 17.3,39.5 17.1,39.4 16.8,39.2 16.6,39 16.3,38.9 16.1,38.7 
	15.9,38.5 15.7,38.2 15.5,38 15.2,37.6 15,37.1 14.7,36.6 14.5,36.1 14.3,35.7 14,35.2 13.8,34.8 13.5,34.3 13.7,34.5 13.9,34.6 
	14.1,34.8 14.3,34.9 14.5,35.1 14.7,35.2 14.9,35.4 15.1,35.6 15.5,36 15.9,36.3 16.3,36.7 16.7,37.1 17.1,37.5 17.5,37.8 
	17.9,38.1 18.3,38.5 18.7,38.8 19.1,39.1 19.6,39.4 20,39.6 20.5,39.8 21,40 21.6,40.1 22.1,40.2 22.2,40.2 22.1,40.2 21.8,40.2 
	21.6,40.3 21.3,40.3 21,40.4 20.7,40.4 20.4,40.5 20.2,40.6 19.8,40.7 19.6,40.7 19.3,40.8 19,40.9 18.7,41 18.4,41.1 18.2,41.1 
	17.8,41.2 17.6,41.2 17.2,41.3 16.9,41.4 16.5,41.4 16.2,41.4 15.8,41.5 15.5,41.5 15.1,41.5 "/>
<polygon class="st0" points="14.8,41.5 15.1,41.5 15.5,41.5 15.8,41.5 16.2,41.4 16.5,41.4 16.9,41.4 17.2,41.3 17.6,41.2 
	17.8,41.2 18.2,41.1 18.4,41.1 18.7,41 19,40.9 19.3,40.8 19.6,40.7 19.8,40.7 20.2,40.6 20.4,40.5 20.7,40.4 21,40.4 21.3,40.3 
	21.6,40.3 21.8,40.2 22.1,40.2 22.2,40.2 22.1,40.2 21.6,40.1 21,40 20.5,39.8 20,39.6 19.6,39.4 19.1,39.1 18.7,38.8 18.3,38.5 
	17.9,38.1 17.5,37.8 17.1,37.5 16.7,37.1 16.3,36.7 15.9,36.3 15.5,36 15.1,35.6 14.9,35.4 14.7,35.2 14.5,35.1 14.3,34.9 
	14.1,34.8 13.9,34.6 13.7,34.5 13.5,34.3 13.8,34.8 14,35.2 14.3,35.7 14.5,36.1 14.7,36.6 15,37.1 15.2,37.6 15.5,38 15.7,38.2 
	15.9,38.5 16.1,38.7 16.3,38.9 16.6,39 16.8,39.2 17.1,39.4 17.3,39.5 17.5,39.6 17.7,39.6 17.9,39.7 18.1,39.8 18.3,39.8 
	18.5,39.9 18.7,40 18.9,40 18.9,40 19,40 19,40.1 18.7,40 18.4,40 18.2,40 17.9,39.9 17.6,39.9 17.3,39.9 17,39.8 16.8,39.8 
	16.5,39.8 16.2,39.7 16,39.7 15.7,39.6 15.4,39.6 15.1,39.6 14.9,39.6 14.6,39.5 14.2,39.5 13.8,39.5 13.3,39.5 12.9,39.4 
	12.4,39.4 12,39.3 11.5,39.2 11.1,39.1 10.7,39 10.3,38.9 9.9,38.7 9.5,38.5 9.2,38.3 8.8,38 8.5,37.8 8.2,37.4 8.5,37.9 8.9,38.4 
	9.3,38.9 9.7,39.4 10.2,39.8 10.7,40.1 11.2,40.5 11.7,40.7 12.1,40.9 12.5,41 12.8,41.2 13.2,41.2 13.6,41.3 14,41.4 14.4,41.4 "/>
<polygon points="40.3,41.3 40,41.3 39.7,41.3 39.4,41.2 39.1,41.2 38.8,41.2 38.5,41.1 38.2,41.1 38,41 37.7,40.9 37.4,40.9 
	37.1,40.8 36.8,40.7 36.5,40.6 36.2,40.5 35.9,40.5 35.6,40.4 35.4,40.4 35.1,40.3 34.9,40.3 34.7,40.2 34.5,40.2 34.3,40.2 
	34,40.1 33.8,40.1 33.8,40.1 33.8,40.1 34.3,40 34.8,39.9 35.3,39.7 35.7,39.5 36.2,39.3 36.6,39.1 37,38.9 37.4,38.6 37.7,38.3 
	38.1,37.9 38.4,37.6 38.8,37.3 39.1,37 39.5,36.6 39.8,36.3 40.2,35.9 40.4,35.7 40.7,35.4 41,35.2 41.3,34.9 41.6,34.7 41.8,34.5 
	42.1,34.3 42.4,34.1 42.2,34.4 42,34.7 41.8,35 41.7,35.3 41.5,35.7 41.4,36 41.2,36.3 41,36.7 40.9,37 40.7,37.2 40.6,37.5 
	40.4,37.8 40.1,38.2 39.7,38.6 39.3,38.9 38.9,39.2 38.5,39.4 38,39.6 37.5,39.8 37,39.9 37,39.9 37,40 37.5,39.9 37.9,39.8 
	38.4,39.7 38.8,39.7 39.3,39.6 39.7,39.6 40.2,39.5 40.6,39.5 41.1,39.4 41.5,39.4 42,39.3 42.4,39.3 42.9,39.2 43.3,39.2 
	43.8,39.1 44.2,39 44.8,38.9 45.3,38.7 45.7,38.6 46.2,38.3 46.6,38.1 47,37.8 47.3,37.5 47.7,37.1 47.6,37.4 47.5,37.5 47.4,37.7 
	47.3,37.9 47.1,38.1 47,38.3 46.9,38.4 46.7,38.6 46.4,38.9 46.1,39.2 45.8,39.5 45.4,39.8 45,40 44.6,40.3 44.2,40.5 43.8,40.7 
	43.4,40.8 43,41 42.6,41.1 42.1,41.2 41.7,41.2 41.2,41.3 40.8,41.3 "/>
<polygon class="st0" points="40.3,41.3 40.8,41.3 41.2,41.3 41.7,41.2 42.1,41.2 42.6,41.1 43,41 43.4,40.8 43.8,40.7 44.2,40.5 
	44.6,40.3 45,40 45.4,39.8 45.8,39.5 46.1,39.2 46.4,38.9 46.7,38.6 46.9,38.4 47,38.3 47.1,38.1 47.3,37.9 47.4,37.7 47.5,37.5 
	47.6,37.4 47.7,37.1 47.3,37.5 47,37.8 46.6,38.1 46.2,38.3 45.7,38.6 45.3,38.7 44.8,38.9 44.2,39 43.8,39.1 43.3,39.2 42.9,39.2 
	42.4,39.3 42,39.3 41.5,39.4 41.1,39.4 40.6,39.5 40.2,39.5 39.7,39.6 39.3,39.6 38.8,39.7 38.4,39.7 37.9,39.8 37.5,39.9 37,40 
	37,39.9 37,39.9 37.5,39.8 38,39.6 38.5,39.4 38.9,39.2 39.3,38.9 39.7,38.6 40.1,38.2 40.4,37.8 40.6,37.5 40.7,37.2 40.9,37 
	41,36.7 41.2,36.3 41.4,36 41.5,35.7 41.7,35.3 41.8,35 42,34.7 42.2,34.4 42.4,34.1 42.1,34.3 41.8,34.5 41.6,34.7 41.3,34.9 
	41,35.2 40.7,35.4 40.4,35.7 40.2,35.9 39.8,36.3 39.5,36.6 39.1,37 38.8,37.3 38.4,37.6 38.1,37.9 37.7,38.3 37.4,38.6 37,38.9 
	36.6,39.1 36.2,39.3 35.7,39.5 35.3,39.7 34.8,39.9 34.3,40 33.8,40.1 33.8,40.1 33.8,40.1 34,40.1 34.3,40.2 34.5,40.2 34.7,40.2 
	34.9,40.3 35.1,40.3 35.4,40.4 35.6,40.4 35.9,40.5 36.2,40.5 36.5,40.6 36.8,40.7 37.1,40.8 37.4,40.9 37.7,40.9 38,41 38.2,41.1 
	38.5,41.1 38.8,41.2 39.1,41.2 39.4,41.2 39.7,41.3 40,41.3 "/>
<polygon points="15.6,39.1 15.6,39.1 14.9,38.9 14.2,38.8 13.5,38.7 12.9,38.5 12.2,38.3 11.6,38.2 10.9,38 10.3,37.8 9.7,37.6 
	9.1,37.3 8.6,37 8,36.7 7.5,36.3 7,35.9 6.6,35.4 6.1,34.8 5.8,34.5 5.5,34.1 5.3,33.7 5.1,33.2 4.8,32.8 4.7,32.3 4.5,31.8 
	4.4,31.3 4.7,31.7 5,32.2 5.3,32.6 5.6,33 6,33.3 6.4,33.7 6.9,33.9 7.3,34.2 7.8,34.5 8.2,34.7 8.7,35 9.2,35.2 9.7,35.4 
	10.1,35.6 10.6,35.9 11,36.1 11.3,36.3 11.7,36.5 11.9,36.8 12.2,37 12.6,37.2 12.9,37.5 13.2,37.7 13.5,37.8 13.5,37.8 13.5,37.8 
	13.5,37.8 13.5,37.8 12.6,37 11.9,36.1 11.4,35 11,33.8 10.8,32.6 10.6,31.4 10.3,30.3 9.9,29.1 10.6,29.9 11.2,30.7 11.8,31.7 
	12.2,32.6 12.7,33.7 13.1,34.7 13.5,35.8 13.9,36.9 14.1,37.2 14.2,37.5 14.4,37.8 14.6,38 14.9,38.3 15.1,38.6 15.4,38.8 "/>
<polygon class="st0" points="15.6,39.1 15.6,39.1 15.6,39.1 15.4,38.8 15.1,38.6 14.9,38.3 14.6,38 14.4,37.8 14.2,37.5 14.1,37.2 
	13.9,36.9 13.5,35.8 13.1,34.7 12.7,33.7 12.2,32.6 11.8,31.7 11.2,30.7 10.6,29.9 9.9,29.1 10.3,30.3 10.6,31.4 10.8,32.6 11,33.8 
	11.4,35 11.9,36.1 12.6,37 13.5,37.8 13.5,37.8 13.5,37.8 13.5,37.8 13.5,37.8 13.2,37.7 12.9,37.5 12.6,37.2 12.2,37 11.9,36.8 
	11.7,36.5 11.3,36.3 11,36.1 10.6,35.9 10.1,35.6 9.7,35.4 9.2,35.2 8.7,35 8.2,34.7 7.8,34.5 7.3,34.2 6.9,33.9 6.4,33.7 6,33.3 
	5.6,33 5.3,32.6 5,32.2 4.7,31.7 4.4,31.3 4.5,31.8 4.7,32.3 4.8,32.8 5.1,33.2 5.3,33.7 5.5,34.1 5.8,34.5 6.1,34.8 6.6,35.4 
	7,35.9 7.5,36.3 8,36.7 8.6,37 9.1,37.3 9.7,37.6 10.3,37.8 10.9,38 11.6,38.2 12.2,38.3 12.9,38.5 13.5,38.7 14.2,38.8 14.9,38.9 
	"/>
<polygon points="28.2,38.9 27.9,38.9 27.7,38.9 27.4,38.9 27.2,38.9 26.9,38.9 26.6,38.9 26.3,38.9 26,38.9 25.8,38.8 25.4,38.8 
	25.2,38.7 24.9,38.7 24,38.5 23.1,38.3 22.3,38.1 21.5,37.8 20.7,37.5 19.9,37.1 19.2,36.8 18.5,36.3 17.8,35.9 17.1,35.4 16.5,35 
	15.8,34.4 15.3,33.8 14.7,33.2 14.1,32.6 13.5,31.9 13.4,31.7 13.2,31.4 13,31.2 12.8,30.9 12.6,30.6 12.5,30.4 12.3,30.1 
	12.2,29.8 11.3,27.9 10.6,25.9 10.2,23.8 10,21.8 10.1,19.6 10.4,17.5 10.9,15.5 11.8,13.5 12,13.1 12.2,12.7 12.5,12.2 12.7,11.8 
	13,11.4 13.3,11 13.6,10.6 13.9,10.2 14.2,9.9 14.5,9.5 14.8,9.1 15.2,8.8 15.5,8.5 15.9,8.1 16.2,7.8 16.6,7.5 16.9,7.2 17.3,6.9 
	17.7,6.7 18.1,6.5 18.5,6.2 18.8,6 19.2,5.7 19.6,5.6 20.6,5.1 21.5,4.7 22.5,4.4 23.4,4.1 24.4,3.9 25.5,3.7 26.5,3.6 27.5,3.6 
	28.6,3.6 29.6,3.6 30.6,3.7 31.7,3.9 32.7,4.2 33.7,4.5 34.6,4.9 35.6,5.3 36,5.5 36.4,5.7 36.8,5.9 37.2,6.1 37.6,6.4 38,6.7 
	38.3,6.9 38.7,7.2 39,7.5 39.4,7.8 39.8,8.1 40.1,8.4 40.5,8.8 40.8,9.1 41.2,9.5 41.5,9.9 42.1,10.6 42.6,11.3 43.1,12.1 
	43.6,12.9 44,13.7 44.4,14.6 44.8,15.5 45.1,16.4 45.3,17.4 45.5,18.4 45.7,19.3 45.7,20.4 45.8,21.3 45.8,22.3 45.7,23.3 
	45.5,24.3 45.4,24.6 45.4,24.9 45.3,25.2 45.2,25.6 45,26.3 44.8,27.1 44.5,27.8 44.2,28.5 43.8,29.2 43.5,29.8 43.2,30.4 42.8,31 
	42.3,31.7 41.7,32.4 41.2,33 40.6,33.7 40,34.3 39.3,34.8 38.6,35.4 38,35.8 37.2,36.3 36.5,36.7 35.7,37.2 34.9,37.5 34.1,37.9 
	33.2,38.1 32.3,38.4 31.4,38.6 31.2,38.7 30.9,38.7 30.6,38.7 30.4,38.8 30.1,38.8 29.8,38.8 29.5,38.9 29.3,38.9 29,38.9 
	28.7,38.9 28.5,38.9 "/>
<polygon class="st0" points="27.2,38.9 27.4,38.9 27.7,38.9 27.9,38.9 28.2,38.9 28.5,38.9 28.7,38.9 29,38.9 29.3,38.9 29.5,38.9 
	29.8,38.8 30.1,38.8 30.4,38.8 30.6,38.7 30.9,38.7 31.2,38.7 31.4,38.6 32.3,38.4 33.2,38.1 34.1,37.9 34.9,37.5 35.7,37.2 
	36.5,36.7 37.2,36.3 38,35.8 38.6,35.4 39.3,34.8 40,34.3 40.6,33.7 41.2,33 41.7,32.4 42.3,31.7 42.8,31 43.2,30.4 43.5,29.8 
	43.8,29.2 44.2,28.5 44.5,27.8 44.8,27.1 45,26.3 45.2,25.6 45.3,25.2 45.4,24.9 45.4,24.6 45.5,24.3 45.7,23.3 45.8,22.3 
	45.8,21.3 45.7,20.4 45.7,19.3 45.5,18.4 45.3,17.4 45.1,16.4 44.8,15.5 44.4,14.6 44,13.7 43.6,12.9 43.1,12.1 42.6,11.3 
	42.1,10.6 41.5,9.9 41.2,9.5 40.8,9.1 40.5,8.8 40.1,8.4 39.8,8.1 39.4,7.8 39,7.5 38.7,7.2 38.3,6.9 38,6.6 37.6,6.4 37.2,6.1 
	36.8,5.9 36.4,5.7 36,5.5 35.6,5.3 34.6,4.9 33.7,4.5 32.7,4.2 31.7,3.9 30.6,3.7 29.6,3.6 28.6,3.6 27.5,3.6 26.5,3.6 25.5,3.7 
	24.4,3.9 23.4,4.1 22.5,4.4 21.5,4.7 20.6,5.1 19.6,5.6 19.2,5.7 18.8,6 18.5,6.2 18.1,6.5 17.7,6.7 17.3,6.9 16.9,7.2 16.6,7.5 
	16.2,7.8 15.9,8.1 15.5,8.5 15.2,8.8 14.8,9.1 14.5,9.5 14.2,9.9 13.9,10.2 13.6,10.6 13.3,11 13,11.4 12.7,11.8 12.5,12.2 
	12.2,12.7 12,13.1 11.8,13.5 10.9,15.5 10.4,17.5 10.1,19.6 10,21.8 10.2,23.8 10.6,25.9 11.3,27.9 12.2,29.8 12.3,30.1 12.5,30.4 
	12.6,30.6 12.8,30.9 13,31.2 13.2,31.4 13.4,31.7 13.5,31.9 14.1,32.6 14.7,33.2 15.3,33.8 15.8,34.4 16.5,35 17.1,35.4 17.8,35.9 
	18.5,36.3 19.2,36.8 19.9,37.1 20.7,37.5 21.5,37.8 22.3,38.1 23.1,38.3 24,38.5 24.9,38.7 25.2,38.7 25.4,38.8 25.8,38.8 26,38.9 
	26.3,38.9 26.6,38.9 26.9,38.9 "/>
<polygon points="40.2,38.9 40.8,38.4 41.2,37.8 41.6,37.2 42,36.6 42.3,35.9 42.6,35.2 42.8,34.5 43.1,33.8 43.3,33.1 43.6,32.4 
	43.9,31.7 44.2,31 44.5,30.4 44.9,29.9 45.4,29.3 45.9,28.8 45.7,29.4 45.5,30 45.4,30.5 45.3,31.1 45.2,31.7 45.1,32.3 45,32.9 
	44.9,33.5 44.7,34.1 44.5,34.7 44.3,35.3 44,35.8 43.6,36.2 43.3,36.7 42.8,37.2 42.4,37.6 42.4,37.6 42.4,37.6 42.4,37.6 
	42.6,37.5 42.8,37.4 42.9,37.3 43.1,37.2 43.3,37.1 43.4,36.9 43.6,36.8 43.8,36.7 43.9,36.6 44,36.5 44.2,36.4 44.3,36.3 
	44.8,35.9 45.2,35.7 45.7,35.4 46.2,35.1 46.7,34.9 47.3,34.6 47.8,34.3 48.3,34.1 48.8,33.8 49.3,33.5 49.7,33.1 50.1,32.8 
	50.5,32.4 50.9,31.9 51.2,31.4 51.4,30.9 51.3,31.2 51.3,31.6 51.2,31.9 51.1,32.2 50.9,32.6 50.8,32.9 50.7,33.2 50.5,33.4 
	50.1,34.1 49.7,34.7 49.2,35.2 48.7,35.7 48.1,36.2 47.5,36.6 46.9,37 46.2,37.3 45.5,37.6 44.8,37.8 44.1,38.1 43.3,38.3 
	42.6,38.5 41.8,38.6 41,38.8 40.3,38.9 "/>
<polygon class="st0" points="40.3,38.9 41,38.8 41.8,38.6 42.6,38.5 43.3,38.3 44.1,38.1 44.8,37.8 45.5,37.6 46.2,37.3 46.9,37 
	47.5,36.6 48.1,36.2 48.7,35.7 49.2,35.2 49.7,34.7 50.1,34.1 50.5,33.4 50.7,33.2 50.8,32.9 50.9,32.6 51.1,32.2 51.2,31.9 
	51.3,31.6 51.3,31.2 51.4,30.9 51.2,31.4 50.9,31.9 50.5,32.4 50.1,32.8 49.7,33.1 49.3,33.5 48.8,33.8 48.3,34.1 47.8,34.3 
	47.3,34.6 46.7,34.9 46.2,35.1 45.7,35.4 45.2,35.7 44.8,35.9 44.3,36.3 44.2,36.4 44,36.5 43.9,36.6 43.8,36.7 43.6,36.8 
	43.4,36.9 43.3,37.1 43.1,37.2 42.9,37.3 42.8,37.4 42.6,37.5 42.4,37.6 42.4,37.6 42.4,37.6 42.4,37.6 42.8,37.2 43.3,36.7 
	43.6,36.2 44,35.8 44.3,35.3 44.5,34.7 44.7,34.1 44.9,33.5 45,32.9 45.1,32.3 45.2,31.7 45.3,31.1 45.4,30.5 45.5,30 45.7,29.4 
	45.9,28.8 45.4,29.3 44.9,29.9 44.5,30.4 44.2,31 43.9,31.7 43.6,32.4 43.3,33.1 43.1,33.8 42.8,34.5 42.6,35.2 42.3,35.9 42,36.6 
	41.6,37.2 41.2,37.8 40.8,38.4 40.2,38.9 "/>
<polygon class="st1" points="28.3,38.1 28.3,35.4 28.6,35.4 28.8,35.4 29,35.4 29.2,35.4 29.4,35.4 29.6,35.3 29.8,35.3 30,35.3 
	30.2,35.2 30.3,35.2 30.4,35.2 30.5,35.2 30.6,35.2 30.7,35.2 30.9,35.1 31,35.1 31.2,35.2 31.4,35.2 31.5,35.4 31.7,35.4 
	31.8,35.6 32,35.7 32.2,35.7 32.3,35.8 32.5,35.8 32.7,35.8 32.9,35.7 33.1,35.6 33.3,35.5 33.4,35.4 33.5,35.3 33.6,35.2 
	33.7,35.1 33.8,35 34,34.9 34.1,34.8 34.2,34.6 34.3,34.6 34.4,34.5 34.5,34.3 34.5,34.3 34.6,34.2 34.6,34.2 34.7,34.1 34.7,34 
	34.8,33.9 34.9,33.8 34.9,33.7 35.3,33.4 35.6,33.1 36,32.9 36.4,32.6 36.7,32.4 37.1,32.1 37.4,31.7 37.8,31.4 37.9,31.7 
	38.1,31.9 38.4,32.1 38.6,32.4 38.9,32.6 39.2,32.9 39.4,33.1 39.7,33.3 39.4,33.6 39.1,33.8 38.8,34.1 38.5,34.3 38.2,34.5 
	37.9,34.8 37.6,35 37.3,35.2 37,35.4 36.7,35.6 36.4,35.7 36.1,35.9 35.8,36.1 35.4,36.2 35.1,36.4 34.8,36.6 34.4,36.7 34,36.9 
	33.6,37 33.2,37.2 32.8,37.3 32.4,37.4 32,37.5 31.6,37.6 31.2,37.7 30.7,37.8 30.3,37.8 29.9,37.9 29.5,37.9 29.1,38 28.7,38.1 "/>
<polygon class="st0" points="28.3,38.1 28.7,38.1 29.1,38 29.5,37.9 29.9,37.9 30.3,37.8 30.7,37.8 31.2,37.7 31.6,37.6 32,37.5 
	32.4,37.4 32.8,37.3 33.2,37.2 33.6,37 34,36.9 34.4,36.7 34.8,36.6 35.1,36.4 35.4,36.2 35.8,36.1 36.1,35.9 36.4,35.7 36.7,35.6 
	37,35.4 37.3,35.2 37.6,35 37.9,34.8 38.2,34.5 38.5,34.3 38.8,34.1 39.1,33.8 39.4,33.6 39.7,33.3 39.4,33.1 39.2,32.9 38.9,32.6 
	38.6,32.4 38.4,32.1 38.1,31.9 37.9,31.7 37.8,31.4 37.4,31.7 37.1,32.1 36.7,32.4 36.4,32.6 36,32.9 35.6,33.1 35.3,33.4 
	34.9,33.7 34.9,33.8 34.8,33.9 34.7,34 34.7,34.1 34.6,34.2 34.6,34.2 34.5,34.3 34.5,34.3 34.4,34.5 34.3,34.6 34.2,34.6 
	34.1,34.8 34,34.9 33.8,35 33.7,35.1 33.6,35.2 33.5,35.3 33.4,35.4 33.3,35.5 33.1,35.6 32.9,35.7 32.7,35.8 32.5,35.8 32.3,35.8 
	32.2,35.7 32,35.7 31.8,35.6 31.7,35.4 31.5,35.4 31.4,35.2 31.2,35.2 31,35.1 30.9,35.1 30.7,35.2 30.6,35.2 30.5,35.2 30.4,35.2 
	30.3,35.2 30.2,35.2 30,35.3 29.8,35.3 29.6,35.3 29.4,35.4 29.2,35.4 29,35.4 28.8,35.4 28.6,35.4 28.3,35.4 "/>
<polygon class="st1" points="27,38 26.5,37.9 26.1,37.9 25.6,37.9 25.1,37.8 24.6,37.7 24.2,37.6 23.7,37.5 23.1,37.4 22.6,37.2 
	22,37 21.5,36.8 21,36.6 20.6,36.3 20.1,36.1 19.6,35.9 19.2,35.6 18.7,35.4 18.3,35 17.8,34.8 17.4,34.5 17,34.1 16.6,33.8 
	16.2,33.5 16.4,33.2 16.7,33 16.9,32.8 17.2,32.5 17.4,32.3 17.6,32.1 17.8,31.8 18.1,31.6 18.4,31.9 18.8,32.2 19.2,32.5 
	19.5,32.8 19.9,33 20.2,33.3 20.6,33.5 21,33.8 21.4,34 21.8,34.2 22.3,34.3 22.8,34.5 23.2,34.7 23.7,34.8 24.2,35 24.7,35.1 
	25,35.2 25.4,35.2 25.7,35.3 26,35.4 26.4,35.4 26.7,35.4 27,35.4 27.4,35.4 27.3,36 27.3,36.6 27.3,37.2 27.3,37.9 27.4,38.1 "/>
<polygon class="st0" points="27.4,38.1 27.3,37.9 27.3,37.2 27.3,36.6 27.3,36 27.4,35.4 27,35.4 26.7,35.4 26.4,35.4 26,35.4 
	25.7,35.3 25.4,35.2 25,35.2 24.7,35.1 24.2,35 23.7,34.8 23.2,34.7 22.8,34.5 22.3,34.3 21.8,34.2 21.4,34 21,33.8 20.6,33.5 
	20.2,33.3 19.9,33 19.5,32.8 19.2,32.5 18.8,32.2 18.4,31.9 18.1,31.6 17.8,31.8 17.6,32.1 17.4,32.3 17.2,32.5 16.9,32.8 16.7,33 
	16.4,33.2 16.2,33.5 16.6,33.8 17,34.1 17.4,34.5 17.8,34.8 18.3,35 18.7,35.4 19.2,35.6 19.6,35.9 20.1,36.1 20.6,36.3 21,36.6 
	21.5,36.8 22,37 22.6,37.2 23.1,37.4 23.7,37.5 24.2,37.6 24.6,37.7 25.1,37.8 25.6,37.9 26.1,37.9 26.5,37.9 27,38 "/>
<polygon points="10.7,35.1 10.4,34.9 10.1,34.7 9.8,34.5 9.5,34.3 9.1,34.1 8.8,33.9 8.5,33.7 8.2,33.5 7.8,33.3 7.4,33 6.9,32.7 
	6.5,32.4 6.1,32.1 5.7,31.7 5.3,31.3 5,31 4.6,30.6 4.3,30.2 4,29.7 3.7,29.3 3.5,28.8 3.2,28.3 3.1,27.8 2.9,27.3 2.8,26.6 
	2.8,25.9 2.7,25.2 2.8,24.6 2.9,25.2 3.1,25.8 3.3,26.3 3.6,26.8 3.9,27.2 4.3,27.7 4.7,28.1 5.1,28.5 5.4,28.8 5.6,29 5.8,29.2 
	6,29.5 6.2,29.7 6.4,29.9 6.7,30.1 6.9,30.4 7.1,30.7 7.4,31 7.6,31.3 7.8,31.6 8,31.9 8.2,32.3 8.5,32.6 8.7,32.9 8.8,32.9 
	8.8,32.8 8.8,32.8 8.6,32.5 8.4,32.1 8.2,31.8 8.1,31.4 7.9,31 7.8,30.6 7.7,30.1 7.7,29.7 7.7,29 7.8,28.3 7.9,27.6 8,26.9 
	8.2,26.2 8.3,25.5 8.3,24.8 8.3,24.2 8.7,25.5 9.1,26.9 9.3,28.3 9.4,29.7 9.5,31.1 9.7,32.5 10.1,33.8 10.7,35.1 "/>
<polygon class="st0" points="10.7,35.1 10.7,35.1 10.7,35.1 10.1,33.8 9.7,32.5 9.5,31.1 9.4,29.7 9.3,28.3 9.1,26.9 8.7,25.5 
	8.3,24.2 8.3,24.8 8.3,25.5 8.2,26.2 8,26.9 7.9,27.6 7.8,28.3 7.7,29 7.7,29.7 7.7,30.1 7.8,30.6 7.9,31 8.1,31.4 8.2,31.8 
	8.4,32.1 8.6,32.5 8.8,32.8 8.8,32.8 8.8,32.9 8.7,32.9 8.5,32.6 8.2,32.3 8,31.9 7.8,31.6 7.6,31.3 7.4,31 7.1,30.7 6.9,30.4 
	6.7,30.1 6.4,29.9 6.2,29.7 6,29.5 5.8,29.2 5.6,29 5.4,28.8 5.1,28.5 4.7,28.1 4.3,27.7 3.9,27.2 3.6,26.8 3.3,26.3 3.1,25.8 
	2.9,25.2 2.8,24.6 2.7,25.2 2.8,25.9 2.8,26.6 2.9,27.3 3.1,27.8 3.2,28.3 3.5,28.8 3.7,29.3 4,29.7 4.3,30.2 4.6,30.6 5,31 
	5.3,31.3 5.7,31.7 6.1,32.1 6.5,32.4 6.9,32.7 7.4,33 7.8,33.3 8.2,33.5 8.5,33.7 8.8,33.9 9.1,34.1 9.5,34.3 9.8,34.5 10.1,34.7 
	10.4,34.9 "/>
<polygon points="45.2,34.9 45.2,34.8 45.7,33.5 46.1,32.2 46.3,30.8 46.4,29.4 46.6,28 46.8,26.6 47,25.2 47.6,23.8 47.6,24.8 
	47.7,25.9 47.8,26.9 48,27.9 48.1,28.9 48.1,29.9 47.9,30.9 47.4,31.9 47,32.6 47,32.6 47.1,32.6 47.4,32.1 47.8,31.7 48.1,31.3 
	48.4,30.8 48.7,30.3 49.1,29.9 49.5,29.4 49.9,29 50.5,28.4 51,27.9 51.5,27.3 51.9,26.8 52.3,26.2 52.6,25.6 52.9,24.9 53,24.2 
	53.1,24.8 53.1,25.4 53,26 52.9,26.7 52.7,27.4 52.5,28.2 52.2,28.8 51.8,29.5 51.4,30.1 50.9,30.6 50.4,31.1 49.9,31.6 49.3,32.1 
	48.7,32.5 48.1,32.9 47.5,33.4 46.9,33.7 46.3,34.1 45.7,34.5 "/>
<polygon class="st0" points="45.2,34.9 45.7,34.5 46.3,34.1 46.9,33.7 47.5,33.4 48.1,32.9 48.7,32.5 49.3,32.1 49.9,31.6 
	50.4,31.1 50.9,30.6 51.4,30.1 51.8,29.5 52.2,28.8 52.5,28.2 52.7,27.4 52.9,26.7 53,26 53.1,25.4 53.1,24.8 53,24.2 52.9,24.9 
	52.6,25.6 52.3,26.2 51.9,26.8 51.5,27.3 51,27.9 50.5,28.4 49.9,29 49.5,29.4 49.1,29.9 48.7,30.3 48.4,30.8 48.1,31.3 47.8,31.7 
	47.4,32.1 47.1,32.6 47,32.6 47,32.6 47.4,31.9 47.9,30.9 48.1,29.9 48.1,28.9 48,27.9 47.8,26.9 47.7,25.9 47.6,24.8 47.6,23.8 
	47,25.2 46.8,26.6 46.6,28 46.4,29.4 46.3,30.8 46.1,32.2 45.7,33.5 45.2,34.8 "/>
<polygon class="st1" points="27,34.5 26.6,34.5 26.2,34.4 25.7,34.3 25.2,34.2 24.8,34.1 24.3,33.9 23.9,33.8 23.4,33.7 23,33.5 
	22.6,33.4 22.2,33.2 21.8,33 21.4,32.8 21,32.6 20.7,32.4 20.5,32.2 20.3,32.1 20.1,32 19.9,31.8 19.7,31.7 19.5,31.5 19.3,31.3 
	19.1,31.2 19,31 18.8,30.9 18.7,30.9 18.6,30.8 18.7,30.8 18.9,30.9 19,30.9 19.1,31 19.3,31.1 19.5,31.1 19.7,31.1 19.9,31 
	20.2,30.9 20.4,30.9 20.6,30.8 20.8,30.8 20.9,30.8 21,30.8 21.1,30.8 21.2,30.8 21.3,30.8 21.4,30.7 21.5,30.7 21.6,30.6 
	21.6,30.6 21.6,30.6 21.6,30.5 21.6,30.4 21.5,30.2 21.4,30.1 21.4,29.9 21.5,30 21.6,30.1 21.7,30.2 21.8,30.3 22.1,30.5 
	22.4,30.6 22.7,30.8 23,31 23.4,31.1 23.7,31.3 24,31.4 24.4,31.5 24.7,31.7 25.1,31.8 25.5,31.9 25.8,31.9 26.2,32 26.6,32 27,32 
	27.3,32 27.3,32.6 27.3,33.3 27.3,33.9 27.4,34.6 "/>
<polygon class="st0" points="27.4,34.6 27.3,33.9 27.3,33.3 27.3,32.6 27.3,32 27,32 26.6,32 26.2,32 25.8,31.9 25.5,31.9 
	25.1,31.8 24.7,31.7 24.4,31.5 24,31.4 23.7,31.3 23.4,31.1 23,31 22.7,30.8 22.4,30.6 22.1,30.5 21.8,30.3 21.7,30.2 21.6,30.1 
	21.5,30 21.4,29.9 21.4,30.1 21.5,30.2 21.6,30.4 21.6,30.5 21.6,30.6 21.6,30.6 21.6,30.6 21.5,30.7 21.4,30.7 21.3,30.8 
	21.2,30.8 21.1,30.8 21,30.8 20.9,30.8 20.8,30.8 20.6,30.8 20.4,30.9 20.2,30.9 19.9,31 19.7,31.1 19.5,31.1 19.3,31.1 19.1,31 
	19,30.9 18.9,30.9 18.7,30.8 18.6,30.8 18.7,30.9 18.8,30.9 19,31 19.1,31.2 19.3,31.3 19.5,31.5 19.7,31.7 19.9,31.8 20.1,32 
	20.3,32.1 20.5,32.2 20.7,32.4 21,32.6 21.4,32.8 21.8,33 22.2,33.2 22.6,33.4 23,33.5 23.4,33.7 23.9,33.8 24.3,33.9 24.8,34.1 
	25.2,34.2 25.7,34.3 26.2,34.4 26.6,34.5 27,34.5 "/>
<polygon class="st1" points="28.3,33.9 28.4,33.3 28.3,32.7 28.2,32.2 28.3,32.2 28.3,32.2 28.4,32.3 28.4,32.3 28.5,32.4 
	28.7,32.4 28.8,32.4 29,32.4 29.1,32.4 29.3,32.4 29.4,32.4 29.5,32.5 29.5,32.6 29.5,32.7 29.4,32.8 29.3,33 29.3,33.2 29.4,33.4 
	29.5,33.6 29.7,33.8 29.9,33.9 30.1,34 30.2,34.2 30.5,34.2 30.2,34.3 29.9,34.3 29.7,34.3 29.4,34.3 29.1,34.4 28.9,34.4 
	28.6,34.5 28.3,34.5 "/>
<polygon class="st0" points="28.3,34.5 28.6,34.5 28.9,34.4 29.1,34.4 29.4,34.3 29.7,34.3 29.9,34.3 30.2,34.3 30.5,34.2 
	30.2,34.2 30.1,34 29.9,33.9 29.7,33.8 29.5,33.6 29.4,33.4 29.3,33.2 29.3,33 29.4,32.8 29.5,32.7 29.5,32.6 29.5,32.5 29.4,32.4 
	29.3,32.4 29.1,32.4 29,32.4 28.8,32.4 28.7,32.4 28.5,32.4 28.4,32.3 28.4,32.3 28.3,32.2 28.3,32.2 28.2,32.2 28.3,32.7 
	28.4,33.3 28.3,33.9 "/>
<polygon class="st1" points="15.5,32.8 14.8,32 14.1,31.1 13.5,30.2 13,29.3 12.5,28.3 12.1,27.3 11.7,26.2 11.4,25 11.2,24.2 
	11.1,23.4 11,22.6 11,21.8 11.3,21.8 11.7,21.8 12,21.8 12.3,21.8 12.7,21.8 13,21.8 13.3,21.8 13.7,21.8 13.6,22.2 13.7,22.6 
	13.7,23 13.7,23.4 13.8,23.7 13.9,24.1 14,24.5 14.1,24.8 14.2,25.2 14.1,25.1 14,24.9 13.9,24.8 13.8,24.7 13.6,24.7 13.5,24.7 
	13.3,24.8 13.2,24.9 13.2,24.9 13.2,24.9 13.2,25 13.2,25.1 13,25.1 12.9,25.1 12.9,25.1 12.9,25 12.8,25 12.7,24.9 12.6,24.9 
	12.5,25 12.4,25 12.3,25.1 12.3,25.1 12.3,25.3 12.2,25.3 12.1,25.6 12.1,25.9 12.1,26.2 12.1,26.4 12.2,26.7 12.3,26.9 12.4,27.2 
	12.5,27.4 12.6,27.5 12.7,27.4 12.7,27.4 12.8,27.4 12.8,27.4 12.8,27.4 12.9,27.5 13,27.6 13.1,27.7 13.3,27.8 13.4,27.9 
	13.5,27.9 13.5,27.9 13.6,27.8 13.6,27.8 13.6,27.7 13.6,27.7 13.6,27.7 13.6,27.6 13.7,27.6 13.7,27.7 13.7,27.7 13.7,27.7 
	13.7,27.8 13.8,27.9 13.8,27.9 13.9,28 13.9,28 14,28.1 14.1,28.2 14.2,28.2 14.5,28.4 14.7,28.4 14.7,28.4 14.7,28.4 14.8,28.6 
	14.8,28.7 14.9,28.8 15,28.9 15.1,29 15.2,29.1 15.3,29.2 15.4,29.3 15.5,29.3 15.7,29.3 15.7,29.2 15.8,29.2 15.8,29.2 15.8,29.3 
	15.8,29.3 15.8,29.4 15.9,29.5 16,29.6 16.1,29.7 16.2,29.8 16.3,29.9 16.4,30 16.5,30.1 16.7,30.1 16.9,30.3 17.1,30.5 17.3,30.8 
	17.4,30.9 17.2,31.2 16.9,31.3 16.7,31.6 16.4,31.8 16.2,32.1 15.9,32.3 15.7,32.6 "/>
<polygon class="st0" points="15.5,32.8 15.7,32.6 15.9,32.3 16.2,32.1 16.4,31.8 16.7,31.6 16.9,31.3 17.2,31.2 17.4,30.9 
	17.3,30.8 17.1,30.5 16.9,30.3 16.7,30.1 16.5,30.1 16.4,30 16.3,29.9 16.2,29.8 16.1,29.7 16,29.6 15.9,29.5 15.8,29.4 15.8,29.3 
	15.8,29.3 15.8,29.2 15.8,29.2 15.7,29.2 15.7,29.3 15.5,29.3 15.4,29.3 15.3,29.2 15.2,29.1 15.1,29 15,28.9 14.9,28.8 14.8,28.7 
	14.8,28.6 14.7,28.4 14.7,28.4 14.7,28.4 14.5,28.4 14.2,28.2 14.1,28.2 14,28.1 13.9,28 13.9,28 13.8,27.9 13.8,27.9 13.7,27.8 
	13.7,27.7 13.7,27.7 13.7,27.7 13.7,27.6 13.6,27.6 13.6,27.7 13.6,27.7 13.6,27.7 13.6,27.8 13.6,27.8 13.5,27.9 13.5,27.9 
	13.4,27.9 13.3,27.8 13.1,27.7 13,27.6 12.9,27.5 12.8,27.4 12.8,27.4 12.8,27.4 12.7,27.4 12.7,27.4 12.6,27.5 12.5,27.4 
	12.4,27.2 12.3,26.9 12.2,26.7 12.1,26.4 12.1,26.2 12.1,25.9 12.1,25.6 12.2,25.3 12.3,25.3 12.3,25.1 12.3,25.1 12.4,25 12.5,25 
	12.6,24.9 12.7,24.9 12.8,25 12.9,25 12.9,25.1 12.9,25.1 13,25.1 13.2,25.1 13.2,25 13.2,24.9 13.2,24.9 13.2,24.9 13.3,24.8 
	13.5,24.7 13.6,24.7 13.8,24.7 13.9,24.8 14,24.9 14.1,25.1 14.2,25.2 14.1,24.8 14,24.5 13.9,24.1 13.8,23.7 13.7,23.4 13.7,23 
	13.7,22.6 13.6,22.2 13.7,21.8 13.3,21.8 13,21.8 12.7,21.8 12.3,21.8 12,21.8 11.7,21.8 11.3,21.8 11,21.8 11,22.6 11.1,23.4 
	11.2,24.2 11.4,25 11.7,26.2 12.1,27.3 12.5,28.3 13,29.3 13.5,30.2 14.1,31.1 14.8,32 "/>
<polygon class="st1" points="40.3,32.8 40.2,32.6 40.1,32.5 40,32.4 39.9,32.3 39.7,32.1 39.5,31.9 39.3,31.7 39.1,31.5 38.9,31.3 
	38.8,31.1 38.5,31 38.4,30.8 38.4,30.8 38.4,30.8 38.6,30.6 38.8,30.5 38.9,30.3 39,30.1 39.2,29.9 39.3,29.7 39.5,29.6 39.6,29.4 
	39.7,29.3 39.7,29.2 39.7,29.2 39.8,29.1 39.9,28.9 40.1,28.7 40.2,28.5 40.3,28.3 40.4,28.1 40.5,27.9 40.7,27.7 40.8,27.4 
	41.1,26.8 41.4,26.1 41.6,25.3 41.8,24.6 42,23.9 42.1,23.1 42.2,22.4 42.2,21.7 42.2,21.7 42.2,21.7 42.2,21.7 42.6,21.7 
	42.9,21.8 43.3,21.8 43.6,21.8 44,21.8 44.3,21.8 44.6,21.7 45,21.7 44.8,22.3 44.8,22.9 44.7,23.5 44.6,24.2 44.5,24.7 44.4,25.2 
	44.2,25.8 44.1,26.3 43.9,26.8 43.7,27.4 43.5,27.9 43.3,28.4 43.2,28.6 43,28.8 42.9,29 42.8,29.2 42.7,29.4 42.6,29.6 42.5,29.8 
	42.4,30 42.1,30.4 41.9,30.7 41.7,31 41.4,31.3 41.1,31.7 40.9,32.1 40.6,32.4 40.4,32.8 "/>
<polygon class="st0" points="40.4,32.8 40.6,32.4 40.9,32.1 41.1,31.7 41.4,31.3 41.7,31 41.9,30.7 42.1,30.4 42.4,30 42.5,29.8 
	42.6,29.6 42.7,29.4 42.8,29.2 42.9,29 43,28.8 43.2,28.6 43.3,28.4 43.5,27.9 43.7,27.4 43.9,26.8 44.1,26.3 44.2,25.8 44.4,25.2 
	44.5,24.7 44.6,24.2 44.7,23.5 44.8,22.9 44.8,22.3 45,21.7 44.6,21.7 44.3,21.8 44,21.8 43.6,21.8 43.3,21.8 42.9,21.8 42.6,21.7 
	42.2,21.7 42.2,21.7 42.2,21.7 42.2,21.7 42.2,22.4 42.1,23.1 42,23.9 41.8,24.6 41.6,25.3 41.4,26.1 41.1,26.8 40.8,27.4 
	40.7,27.7 40.5,27.9 40.4,28.1 40.3,28.3 40.2,28.5 40.1,28.7 39.9,28.9 39.8,29.1 39.7,29.2 39.7,29.2 39.7,29.3 39.6,29.4 
	39.5,29.6 39.3,29.7 39.2,29.9 39,30.1 38.9,30.3 38.8,30.5 38.6,30.6 38.4,30.8 38.4,30.8 38.4,30.8 38.5,31 38.8,31.1 38.9,31.3 
	39.1,31.5 39.3,31.7 39.5,31.9 39.7,32.1 39.9,32.3 40,32.4 40.1,32.5 40.2,32.6 40.3,32.8 "/>
<path class="st1" d="M37,30.8L37,30.8L37,30.8L37,30.8z M35.3,32.3L35.3,32.3l0.1-0.2l0,0V32v-0.1v-0.1l-0.1-0.1v-0.1v-0.1v-0.1
	l0.1-0.1v-0.1l0.1-0.2l0.1-0.2l0.1-0.2l0.1-0.2v-0.1l-0.1-0.1l-0.1-0.1L35.5,30l-0.2-0.1L35.2,30L35,29.9l-0.1-0.1v-0.3l0.1-0.1
	l0.1-0.1l0.1-0.1l0.1-0.1l0,0l0.2,0.2l0.2,0.2l0.2,0.2l0.2,0.2l0.2,0.2l0.1,0.2l0.1,0.2v0.2l0.1,0.1h0.1h0.2H37l0,0L36.8,31
	l-0.2,0.2l-0.2,0.2l-0.2,0.2l-0.3,0.1l-0.2,0.2l-0.2,0.2L35.3,32.3L35.3,32.3z"/>
<polygon class="st0" points="35.3,32.3 35.5,32.1 35.7,31.9 35.9,31.7 36.1,31.6 36.3,31.4 36.6,31.3 36.8,31.1 37,30.9 37,30.8 
	37,30.8 36.9,30.9 36.8,30.9 36.6,30.8 36.5,30.8 36.5,30.5 36.3,30.3 36.2,30.1 36,29.9 35.8,29.6 35.6,29.4 35.4,29.2 35.3,29 
	35.3,29 35.2,29.1 35.1,29.3 35,29.4 34.8,29.5 34.9,29.8 35,29.9 35.2,30 35.4,30.1 35.5,30.2 35.7,30.3 35.7,30.4 35.8,30.5 
	35.9,30.6 35.8,30.8 35.7,31 35.5,31.1 35.4,31.3 35.4,31.3 35.3,31.4 35.3,31.5 35.3,31.6 35.3,31.7 35.4,31.8 35.4,31.9 35.4,32 
	35.4,32.1 35.4,32.1 35.3,32.2 "/>
<path class="st1" d="M26.4,28.3L26.4,28.3L26.4,28.3L26.4,28.3z M26.1,30.9l-0.3-0.1l-0.4-0.1l-0.3-0.1l-0.4-0.1l-0.4-0.1L24,30.3
	l-0.3-0.2l-0.4-0.2l-0.4-0.2l-0.3-0.2l-0.3-0.2L22,29.1l-0.3-0.2l-0.3-0.2l-0.3-0.2l0.2-0.2l0.2-0.2l0.2-0.2l0.2-0.2l0.2-0.2
	l0.2-0.2l0.2-0.2l0.2-0.2l0.1,0.2l0.1,0.1l0.1,0.1l0.1,0.1l0.1,0.1l0.1,0.1l0.1,0.1l0.1,0.1l0.3,0.2l0.3,0.2l0.3,0.2l0.3,0.1
	l0.3,0.1h0.4h0.4h0.1h-0.1h-0.1h-0.1l-0.2,0.1l-0.2,0.2l0.3,0.1l-0.1,0.3l0,0h-0.1l-0.1,0.1h-0.1v0.2l0.1,0.1l0.1,0.2l0.1,0.2
	l0.1,0.2l0.1,0.1l0.1,0.1l0.1,0.1l0.1,0.1L26.1,30.9h0.2h0.2l0,0H26.1z"/>
<polygon class="st0" points="26.4,31 26.4,31 26.4,30.9 26.2,30.9 26.1,30.8 26,30.7 25.8,30.6 25.7,30.5 25.6,30.4 25.5,30.2 
	25.4,30.1 25.3,29.9 25.2,29.8 25.2,29.6 25.2,29.5 25.2,29.4 25.3,29.4 25.4,29.3 25.4,29.3 25.5,29 25.6,28.8 25.8,28.6 26,28.4 
	26.1,28.4 26.2,28.4 26.4,28.3 26.5,28.3 26.2,28.4 25.8,28.3 25.4,28.3 25.1,28.1 24.8,28 24.5,27.9 24.2,27.7 23.9,27.5 
	23.8,27.4 23.6,27.3 23.5,27.3 23.4,27.2 23.3,27.1 23.2,26.9 23,26.8 23,26.7 22.8,26.9 22.6,27.1 22.4,27.4 22.1,27.6 21.9,27.9 
	21.7,28 21.4,28.3 21.2,28.5 21.5,28.7 21.8,28.9 22.2,29.1 22.4,29.3 22.7,29.5 23,29.7 23.4,29.9 23.8,30.1 24.1,30.2 24.4,30.4 
	24.7,30.5 25.1,30.6 25.4,30.7 25.8,30.8 26.1,30.9 "/>
<polygon class="st1" points="37.7,30.2 37.7,30.1 37.7,30 37.7,30 37.6,29.7 37.5,29.3 37.4,29.1 37.2,28.8 37.2,28.8 37.1,28.8 
	37,28.8 36.9,28.7 36.9,28.7 36.8,28.7 36.8,28.8 36.7,28.8 36.7,29.1 36.7,29.1 36.7,29.1 35.9,28.4 35.9,28.4 35.9,28.4 36,28.4 
	36,28.4 36.4,27.9 36.8,27.4 37.1,26.9 37.4,26.3 37.7,25.8 38,25.2 38.2,24.6 38.4,24 38.5,24 38.5,24 38.6,24 38.7,24 38.8,24 
	38.9,24 38.9,23.9 38.9,23.8 38.9,23.7 38.9,23.6 38.8,23.5 38.7,23.4 38.6,23.3 38.6,23.2 38.6,22.8 38.7,22.5 38.7,22.1 
	38.7,21.7 39,21.7 39.4,21.8 39.7,21.8 40.1,21.8 40.4,21.8 40.8,21.8 41.1,21.7 41.4,21.7 41.3,21.8 41.2,22.6 41.1,23.4 
	40.9,24.2 40.7,24.9 40.5,25.7 40.2,26.4 39.9,27.1 39.5,27.8 39.3,28.1 39.1,28.4 38.9,28.7 38.7,29 38.5,29.3 38.2,29.6 38,29.9 
	37.7,30.2 "/>
<polygon class="st0" points="37.7,30.2 38,29.9 38.2,29.6 38.5,29.3 38.7,29 38.9,28.7 39.1,28.4 39.3,28.1 39.5,27.8 39.9,27.1 
	40.2,26.4 40.5,25.7 40.7,24.9 40.9,24.2 41.1,23.4 41.2,22.6 41.3,21.8 41.4,21.7 41.1,21.7 40.8,21.8 40.4,21.8 40.1,21.8 
	39.7,21.8 39.4,21.8 39,21.7 38.7,21.7 38.7,22.1 38.7,22.5 38.6,22.8 38.6,23.2 38.6,23.3 38.7,23.4 38.8,23.5 38.9,23.6 
	38.9,23.7 38.9,23.8 38.9,23.9 38.9,24 38.8,24 38.7,24 38.6,24 38.5,24 38.5,24 38.4,24 38.2,24.6 38,25.2 37.7,25.8 37.4,26.3 
	37.1,26.9 36.8,27.4 36.4,27.9 36,28.4 36,28.4 35.9,28.4 35.9,28.4 35.9,28.4 36.7,29.1 36.7,29.1 36.7,29.1 36.7,28.8 36.8,28.8 
	36.8,28.7 36.9,28.7 36.9,28.7 37,28.8 37.1,28.8 37.2,28.8 37.2,28.8 37.4,29.1 37.5,29.3 37.6,29.7 37.7,30 37.7,30 37.7,30.1 
	37.7,30.2 "/>
<polygon class="st1" points="21.1,29.7 21.1,29.6 21.3,29.9 "/>
<polygon class="st0" points="21.3,29.9 21.1,29.6 21.1,29.7 "/>
<polygon class="st1" points="21,29.5 21,29.5 21,29.5 21,29.5 "/>
<polygon class="st0" points="21,29.5 21,29.5 21,29.5 21,29.5 "/>
<polygon points="6.5,28.7 6,28.1 5.5,27.5 5,26.8 4.4,26.2 4,25.5 3.6,24.7 3.3,23.9 3.1,23.1 2.9,22.3 2.8,21.5 2.7,20.7 2.8,19.8 
	2.9,18.9 3.1,18.1 3.4,17.3 3.4,18.3 3.5,19.3 3.7,20.2 4.1,21.2 4.5,22.1 4.9,23 5.3,24 5.5,24.9 5.6,25.5 5.8,26 5.9,26.5 6,27 
	6.1,27.1 6.1,27.1 6.1,27.1 6.1,27 6.2,27 6,26.1 5.9,25.2 5.9,24.3 6.2,23.4 6.4,22.7 6.7,22.1 7.1,21.5 7.4,21 7.8,20.4 8.1,19.8 
	8.4,19.2 8.6,18.4 8.6,18.5 8.6,18.7 8.6,18.8 8.6,18.9 8.5,20 8.4,21.1 8.2,22.2 8,23.2 7.8,24 7.5,24.7 7.3,25.5 7.1,26.3 
	6.9,27.1 6.9,27.8 6.9,28.6 7,29.4 6.9,29.4 "/>
<polygon class="st0" points="7,29.4 6.9,28.6 6.9,27.8 6.9,27.1 7.1,26.3 7.3,25.5 7.5,24.7 7.8,24 8,23.2 8.2,22.2 8.4,21.1 
	8.5,20 8.6,18.9 8.6,18.8 8.6,18.7 8.6,18.5 8.6,18.4 8.4,19.2 8.1,19.8 7.8,20.4 7.4,21 7.1,21.5 6.7,22.1 6.4,22.7 6.2,23.4 
	5.9,24.3 5.9,25.2 6,26.1 6.2,27 6.1,27 6.1,27.1 6.1,27.1 6.1,27.1 6,27 5.9,26.5 5.8,26 5.6,25.5 5.5,24.9 5.3,24 4.9,23 
	4.5,22.1 4.1,21.2 3.7,20.2 3.5,19.3 3.4,18.3 3.4,17.3 3.1,18.1 2.9,18.9 2.8,19.8 2.7,20.7 2.8,21.5 2.9,22.3 3.1,23.1 3.3,23.9 
	3.6,24.7 4,25.5 4.4,26.2 5,26.8 5.5,27.5 6,28.1 6.5,28.7 6.9,29.4 "/>
<polygon points="48.9,28.8 48.9,28.6 49,28.3 49,28 48.9,26.8 48.6,25.6 48.3,24.3 47.9,23.1 47.6,21.8 47.3,20.6 47.1,19.4 
	47.2,18.1 47.3,18.7 47.6,19.3 47.8,19.8 48.1,20.2 48.4,20.7 48.7,21.2 48.9,21.6 49.2,22.1 49.5,22.6 49.7,23.2 49.8,23.8 
	49.9,24.4 49.9,25 49.9,25.5 49.8,26.1 49.7,26.7 49.7,26.7 49.7,26.7 49.9,26.4 50.1,25.7 50.2,25.1 50.3,24.5 50.5,23.9 50.8,23 
	51.1,22.2 51.5,21.3 51.8,20.5 52.1,19.6 52.3,18.7 52.4,17.9 52.3,16.9 52.3,17 52.4,17.1 52.4,17.2 52.4,17.2 52.6,17.7 
	52.7,18.2 52.8,18.7 52.9,19.1 53,19.9 53.1,20.6 53,21.4 52.9,22 52.8,22.7 52.5,23.4 52.3,24 52,24.7 51.7,25.3 51.3,25.8 
	50.9,26.4 50.5,27 50.1,27.5 49.7,28 49.3,28.6 48.9,29.1 48.9,29.1 "/>
<polygon class="st0" points="48.9,29.1 49.3,28.6 49.7,28 50.1,27.5 50.5,27 50.9,26.4 51.3,25.8 51.7,25.3 52,24.7 52.3,24 
	52.5,23.4 52.8,22.7 52.9,22 53,21.4 53.1,20.6 53,19.9 52.9,19.1 52.8,18.7 52.7,18.2 52.6,17.7 52.4,17.2 52.4,17.2 52.4,17.1 
	52.3,17 52.3,16.9 52.4,17.9 52.3,18.7 52.1,19.6 51.8,20.5 51.5,21.3 51.1,22.2 50.8,23 50.5,23.9 50.3,24.5 50.2,25.1 50.1,25.7 
	49.9,26.4 49.7,26.7 49.7,26.7 49.7,26.7 49.8,26.1 49.9,25.5 49.9,25 49.9,24.4 49.8,23.8 49.7,23.2 49.5,22.6 49.2,22.1 
	48.9,21.6 48.7,21.2 48.4,20.7 48.1,20.2 47.8,19.8 47.6,19.3 47.3,18.7 47.2,18.1 47.1,19.4 47.3,20.6 47.6,21.8 47.9,23.1 
	48.3,24.3 48.6,25.6 48.9,26.8 49,28 49,28.3 48.9,28.6 48.9,28.8 "/>
<polygon class="st1" points="20,28.4 20,28.3 20,28.3 20,28.3 20,28.3 20,28.2 19.9,28.2 19.9,28.2 19.9,28.2 19.9,28.2 20,28 
	20,28 20.2,27.9 20.2,27.8 20.2,27.3 20,26.8 19.8,26.3 19.8,25.8 19.8,25.6 19.8,25.5 19.8,25.4 19.8,25.3 19.6,25.1 19.6,24.8 
	19.5,24.6 19.4,24.3 19.4,24 19.2,23.8 19,23.6 18.9,23.4 18.9,23.2 18.9,23 18.8,22.8 18.8,22.6 18.9,22.5 19,22.4 19.2,22.4 
	19.3,22.4 19.4,22.2 19.4,22.1 19.4,21.9 19.5,21.8 19.6,21.8 19.7,21.8 19.8,21.8 19.8,21.8 19.9,21.8 20,21.8 20,21.7 20,21.7 
	20,21.5 20,21.3 19.9,21.1 19.8,21 19.8,20.9 19.8,20.8 19.8,20.7 19.9,20.6 19.9,20.6 19.9,20.6 20,20.5 20.1,20.5 20.3,20.5 
	20.5,20.5 20.6,20.5 20.7,20.6 20.8,20.8 20.8,20.9 20.8,21.1 20.8,21.2 20.8,21.4 20.8,21.6 20.8,21.7 20.8,21.8 20.8,21.8 
	20.9,21.8 20.9,21.8 20.8,22.1 20.8,22.2 20.8,22.2 20.8,22.2 20.8,22.2 20.6,22.2 20.6,22.3 20.4,22.3 20.3,22.3 20.3,22.2 
	20.2,22.1 20.1,22 20,22 20,22 20,22 19.9,22.1 19.9,22.1 20,22.3 20,22.5 20,22.7 19.9,22.9 19.9,22.9 19.8,22.9 19.8,22.9 
	19.7,22.9 19.7,22.9 19.7,22.9 19.6,23 19.6,23 19.6,23.1 19.7,23.2 19.8,23.3 19.8,23.3 19.9,23.4 20,23.4 20,23.4 20,23.5 
	20.2,23.5 20.2,23.5 20.2,23.4 20.2,23.4 20.2,23.4 20.2,23.2 20.3,23 20.3,22.8 20.4,22.6 20.6,22.7 20.6,22.8 20.7,22.8 
	20.7,22.9 20.7,22.9 20.8,23.4 21,23.8 21.2,24.3 21.4,24.7 21.5,25.1 21.8,25.4 22,25.7 22.3,26 22.1,26.3 21.8,26.6 21.5,26.8 
	21.3,27.1 21,27.3 20.7,27.6 20.5,27.9 20.2,28.1 20.2,28.2 20.1,28.2 20.1,28.3 "/>
<polygon class="st0" points="20,28.4 20.1,28.3 20.1,28.2 20.2,28.2 20.2,28.1 20.5,27.9 20.7,27.6 21,27.3 21.3,27.1 21.5,26.8 
	21.8,26.6 22.1,26.3 22.3,26 22,25.7 21.8,25.4 21.5,25.1 21.4,24.7 21.2,24.3 21,23.8 20.8,23.4 20.7,22.9 20.7,22.9 20.7,22.8 
	20.6,22.8 20.6,22.7 20.4,22.6 20.3,22.8 20.3,23 20.2,23.2 20.2,23.4 20.2,23.4 20.2,23.4 20.2,23.5 20.2,23.5 20,23.5 20,23.4 
	20,23.4 19.9,23.4 19.8,23.3 19.8,23.3 19.7,23.2 19.6,23.1 19.6,23 19.6,23 19.7,22.9 19.7,22.9 19.7,22.9 19.8,22.9 19.8,22.9 
	19.9,22.9 19.9,22.9 20,22.7 20,22.5 20,22.3 19.9,22.1 19.9,22.1 20,22 20,22 20,22 20.1,22 20.2,22.1 20.3,22.2 20.3,22.3 
	20.4,22.3 20.6,22.3 20.6,22.2 20.8,22.2 20.8,22.2 20.8,22.2 20.8,22.2 20.8,22.1 20.9,21.8 20.9,21.8 20.8,21.8 20.8,21.8 
	20.8,21.7 20.8,21.6 20.8,21.4 20.8,21.2 20.8,21.1 20.8,20.9 20.8,20.8 20.7,20.6 20.6,20.5 20.5,20.5 20.3,20.5 20.1,20.5 
	20,20.5 19.9,20.6 19.9,20.6 19.9,20.6 19.8,20.7 19.8,20.8 19.8,20.9 19.8,21 19.9,21.1 20,21.3 20,21.5 20,21.7 20,21.7 20,21.8 
	19.9,21.8 19.8,21.8 19.8,21.8 19.7,21.8 19.6,21.8 19.5,21.8 19.4,21.9 19.4,22.1 19.4,22.2 19.3,22.4 19.2,22.4 19,22.4 
	18.9,22.5 18.8,22.6 18.8,22.8 18.9,23 18.9,23.2 18.9,23.4 19,23.6 19.2,23.8 19.4,24 19.4,24.3 19.5,24.5 19.6,24.8 19.6,25.1 
	19.8,25.3 19.8,25.4 19.8,25.5 19.8,25.6 19.8,25.8 19.8,26.3 20,26.8 20.2,27.3 20.2,27.8 20.2,27.9 20,28 20,28 19.9,28.2 
	19.9,28.2 19.9,28.2 19.9,28.2 20,28.2 20,28.3 20,28.3 20,28.3 20,28.3 "/>
<polygon class="st1" points="29.8,28.2 29.7,28.1 29.5,28 29.3,28 29.1,28 29,27.8 29,27.8 29,27.7 29,27.7 28.9,27.7 28.8,27.7 
	28.6,27.7 28.5,27.7 28.3,27.7 28.2,27.7 28.1,27.7 28,27.8 27.9,27.9 27.8,27.9 27.6,27.9 27.4,27.9 27.3,27.8 27.2,27.7 
	27.4,27.6 27.6,27.6 27.7,27.5 27.9,27.4 28.1,27.1 28.2,27.1 28.2,27 28.2,27 28.3,26.9 28.3,26.9 28.3,26.9 28.3,26.9 28.3,26.8 
	28.4,26.8 28.5,26.8 28.6,26.7 28.7,26.7 28.7,26.7 28.8,26.6 28.8,26.7 28.9,26.7 28.9,26.7 28.9,26.7 28.9,26.8 29,26.8 
	29.1,26.8 29.3,26.9 29.5,27 29.7,27.1 29.7,26.9 29.7,26.9 29.8,26.9 30.1,27.1 30.5,26.9 30.5,26.9 30.5,26.8 30.4,26.8 
	30.4,26.7 30.4,26.7 30.3,26.7 30.3,26.7 30.3,26.6 30.4,26.6 30.4,26.6 30.5,26.7 30.6,26.7 30.7,26.8 30.8,26.8 31,26.8 31,26.7 
	31.1,26.6 31.2,26.5 31.5,26.4 31.5,26.4 31.5,26.4 31.6,26.5 31.6,26.5 31.6,26.7 31.5,26.9 31.4,27.1 31.3,27.3 30.8,27.6 
	30.6,27.7 30.5,27.7 30.4,27.7 30.2,27.8 30.2,27.8 30.1,27.9 30.1,28 30.1,28 30.1,28.1 30,28.1 29.9,28.2 "/>
<polygon class="st0" points="29.8,28.2 29.9,28.2 30,28.1 30.1,28.1 30.1,28 30.1,28 30.1,27.9 30.2,27.8 30.2,27.8 30.4,27.7 
	30.5,27.7 30.6,27.7 30.8,27.6 31.3,27.3 31.4,27.1 31.5,26.9 31.6,26.7 31.6,26.5 31.6,26.5 31.5,26.4 31.5,26.4 31.5,26.4 
	31.2,26.5 31.1,26.6 31,26.7 31,26.8 30.8,26.8 30.7,26.8 30.6,26.7 30.5,26.7 30.4,26.6 30.4,26.6 30.3,26.6 30.3,26.7 30.3,26.7 
	30.4,26.7 30.4,26.7 30.4,26.8 30.5,26.8 30.5,26.9 30.5,26.9 30.1,27.1 29.8,26.9 29.7,26.9 29.7,26.9 29.7,27.1 29.5,27 
	29.3,26.9 29.1,26.8 29,26.8 28.9,26.8 28.9,26.7 28.9,26.7 28.9,26.7 28.8,26.7 28.8,26.6 28.7,26.7 28.7,26.7 28.6,26.7 
	28.5,26.8 28.4,26.8 28.3,26.8 28.3,26.9 28.3,26.9 28.3,26.9 28.3,26.9 28.2,27 28.2,27 28.2,27.1 28.1,27.1 27.9,27.4 27.7,27.5 
	27.6,27.6 27.4,27.6 27.2,27.7 27.3,27.8 27.4,27.9 27.6,27.9 27.8,27.9 27.9,27.9 28,27.8 28.1,27.7 28.2,27.7 28.3,27.7 
	28.5,27.7 28.6,27.7 28.8,27.7 28.9,27.7 29,27.7 29,27.7 29,27.8 29,27.8 29.1,28 29.3,28 29.5,28 29.7,28.1 "/>
<polygon class="st1" points="33.1,28 32.9,27.9 32.7,27.8 32.5,27.7 32.3,27.7 32.1,27.6 31.9,27.6 31.7,27.5 31.6,27.5 31.6,27.5 
	31.5,27.5 31.5,27.4 31.6,27.3 31.7,27.3 31.9,27.3 32,27.3 32.2,27.3 32.4,27.4 32.6,27.5 32.8,27.5 33,27.5 33.2,27.6 33.4,27.6 
	33.6,27.7 33.8,27.8 34,27.8 34.1,27.8 34.2,27.7 34.3,27.7 34.4,27.6 34.4,27.6 34.4,27.5 34.4,27.5 34.5,27.3 34.6,27.3 
	34.6,27.1 34.6,27 34.7,26.9 34.7,26.7 34.7,26.5 34.8,26.3 34.8,26.2 34.9,26.1 34.9,26 34.9,25.8 34.9,25.6 34.8,25.5 34.7,25.3 
	34.6,25.2 34.5,25.2 34.4,25.2 34.3,25.3 34.2,25.3 34.1,25.4 34,25.5 34,25.6 33.9,25.7 33.9,25.7 33.9,25.8 33.8,25.8 33.8,25.8 
	33.5,25.9 33.5,25.9 33.4,25.9 33.4,25.9 33.3,25.9 33.3,25.9 33.2,25.9 33.2,25.9 33.2,25.8 33.2,25.8 33.2,25.8 33.3,25.7 
	33.4,25.7 33.5,25.7 33.6,25.7 33.8,25.6 33.9,25.5 33.9,25.4 34.1,25.3 34.2,25.2 34.4,25.2 34.5,25.1 34.6,25 34.7,24.8 
	34.9,24.6 35,24.4 35.1,24.2 35.1,24.3 35.1,24.4 35.2,24.5 35.3,24.5 35.3,24.6 35.4,24.5 35.5,24.5 35.5,24.5 35.7,24.2 
	35.9,24.3 36.1,24.3 36.3,24.3 36.5,24.3 36.7,24.3 36.9,24.2 37.1,24.2 37.3,24.2 37.3,24.2 37.3,24.2 37.1,24.7 36.9,25.2 
	36.7,25.6 36.5,26.1 36.2,26.5 35.9,26.9 35.6,27.3 35.3,27.7 35.3,27.5 35.2,27.4 35.2,27.3 35.1,27.1 35.1,27.1 35.1,27.1 35,27 
	35,27 34.9,27.1 34.8,27.3 34.7,27.5 34.6,27.7 34.5,28 33.3,28.1 "/>
<polygon class="st0" points="33.3,28.1 34.5,28 34.6,27.7 34.7,27.5 34.8,27.3 34.9,27.1 35,27 35,27 35.1,27.1 35.1,27.1 
	35.1,27.1 35.2,27.3 35.2,27.4 35.3,27.5 35.3,27.7 35.6,27.3 35.9,26.9 36.2,26.5 36.5,26.1 36.7,25.6 36.9,25.2 37.1,24.7 
	37.3,24.2 37.3,24.2 37.3,24.2 37.1,24.2 36.9,24.2 36.7,24.3 36.5,24.3 36.3,24.3 36.1,24.3 35.9,24.3 35.7,24.2 35.5,24.5 
	35.5,24.5 35.4,24.5 35.3,24.6 35.3,24.5 35.2,24.5 35.1,24.4 35.1,24.3 35.1,24.2 35,24.4 34.9,24.6 34.7,24.8 34.6,25 34.5,25.1 
	34.4,25.2 34.2,25.2 34.1,25.3 33.9,25.4 33.9,25.5 33.8,25.6 33.6,25.7 33.5,25.7 33.4,25.7 33.3,25.7 33.2,25.8 33.2,25.8 
	33.2,25.8 33.2,25.9 33.2,25.9 33.3,25.9 33.3,25.9 33.4,25.9 33.4,25.9 33.5,25.9 33.5,25.9 33.8,25.8 33.8,25.8 33.9,25.8 
	33.9,25.7 33.9,25.7 34,25.6 34,25.5 34.1,25.4 34.2,25.3 34.3,25.3 34.4,25.2 34.5,25.2 34.6,25.2 34.7,25.3 34.8,25.5 34.9,25.6 
	34.9,25.8 34.9,26 34.9,26.1 34.8,26.2 34.8,26.3 34.7,26.5 34.7,26.7 34.7,26.9 34.6,27 34.6,27.1 34.6,27.3 34.5,27.3 34.4,27.5 
	34.4,27.5 34.4,27.6 34.4,27.6 34.3,27.7 34.2,27.7 34.1,27.8 34,27.8 33.8,27.8 33.6,27.7 33.4,27.6 33.2,27.6 33,27.5 32.8,27.5 
	32.6,27.5 32.4,27.4 32.2,27.3 32,27.3 31.9,27.3 31.7,27.3 31.6,27.3 31.5,27.4 31.5,27.5 31.6,27.5 31.6,27.5 31.7,27.5 
	31.9,27.6 32.1,27.6 32.3,27.7 32.5,27.7 32.7,27.8 32.9,27.9 33.1,28 "/>
<polygon class="st1" points="26.9,27.5 26.9,27.5 26.8,27.4 26.4,27.3 26,27.2 25.5,27.1 25.1,26.9 24.8,26.7 24.4,26.5 24.1,26.2 
	23.8,26 23.9,25.9 24,25.7 24.2,25.6 24.3,25.4 24.5,25.3 24.6,25.1 24.8,25 24.9,24.8 25,24.7 25.2,24.6 25.3,24.4 25.4,24.3 
	25.4,24.3 25.4,24.3 25.4,24.5 25.6,24.6 25.7,24.7 25.8,24.7 26,24.8 26.3,24.9 26.5,25 26.7,25.1 27,25.1 27.2,25.1 27.4,25.1 
	27.7,25.1 27.6,25.1 27.5,25.1 27.5,25.2 27.5,25.2 27.5,25.7 27.4,25.8 27.4,25.9 27.4,26 27.5,26.1 27.5,26.2 27.5,26.3 
	27.6,26.3 27.7,26.3 27.7,26.4 27.7,26.4 27.7,26.5 27.6,26.5 27.5,26.6 27.4,26.6 27.3,26.6 27.1,26.6 27,26.8 27,27 27,27.2 "/>
<polygon class="st0" points="26.9,27.5 26.9,27.5 26.9,27.5 27,27.2 27,27 27,26.8 27.1,26.6 27.3,26.6 27.4,26.6 27.5,26.6 
	27.6,26.5 27.7,26.5 27.7,26.4 27.7,26.4 27.7,26.3 27.6,26.3 27.5,26.3 27.5,26.2 27.5,26.1 27.4,26 27.4,25.9 27.4,25.8 
	27.5,25.7 27.5,25.2 27.5,25.2 27.5,25.1 27.6,25.1 27.7,25.1 27.4,25.1 27.2,25.1 27,25.1 26.7,25.1 26.5,25 26.3,24.9 26,24.8 
	25.8,24.7 25.7,24.7 25.6,24.6 25.4,24.5 25.4,24.3 25.4,24.3 25.4,24.3 25.3,24.4 25.2,24.6 25,24.7 24.9,24.8 24.8,25 24.6,25.1 
	24.5,25.3 24.3,25.4 24.2,25.6 24,25.7 23.9,25.9 23.8,26 24.1,26.2 24.4,26.5 24.8,26.7 25.1,26.9 25.5,27.1 26,27.2 26.4,27.3 
	26.8,27.4 "/>
<polygon class="st1" points="30.5,26 30.5,25.9 30.5,25.8 30.6,25.7 30.6,25.7 30.7,25.6 30.7,25.6 30.7,25.6 30.8,25.6 31.2,25.5 
	31.2,25.5 31.2,25.6 31.2,25.6 31.2,25.6 "/>
<polygon class="st0" points="30.5,26 31.2,25.6 31.2,25.6 31.2,25.6 31.2,25.5 31.2,25.5 30.8,25.6 30.7,25.6 30.7,25.6 30.7,25.6 
	30.6,25.7 30.6,25.7 30.5,25.8 30.5,25.9 "/>
<path class="st1" d="M17.2,22.9L17.2,22.9L17.2,22.9L17.2,22.9L17.2,22.9z M15.1,25.3l-0.2-0.9l-0.1-0.9l-0.2-0.9l-0.2-0.9l0,0l0,0
	l0,0l0,0h0.3h0.4h0.3h0.5h0.3h0.3h0.3h0.3l0,0l0,0l0,0V22v0.3v0.3l0.1,0.1h-0.1l0,0L17,22.6h-0.1h-0.1h-0.1l-0.2,0.1L16.4,23
	l-0.2,0.2L16,23.3l-0.2,0.2l-0.2,0.2L15.5,24l-0.1,0.2v0.1v0.1v0.1v0.1v0.1v0.1v0.1V25l0,0h-0.1h-0.1v0.1L15.1,25.3L15.1,25.3z"/>
<polygon class="st0" points="15.1,25.3 15.2,25.1 15.2,25 15.3,25 15.4,25 15.4,24.9 15.4,24.8 15.4,24.7 15.4,24.6 15.4,24.5 
	15.4,24.4 15.4,24.3 15.4,24.2 15.4,24.1 15.5,23.9 15.7,23.6 15.8,23.4 16,23.2 16.2,23.1 16.4,23 16.5,22.8 16.7,22.7 16.8,22.7 
	17,22.7 17,22.7 17.1,22.8 17.2,22.9 17.2,22.9 17.3,23 17.3,23 17.2,22.8 17.1,22.5 17.1,22.2 17.1,21.8 17.2,21.8 17.2,21.8 
	17.2,21.8 16.8,21.8 16.5,21.8 16.2,21.8 15.9,21.8 15.5,21.8 15.2,21.8 14.9,21.8 14.6,21.8 14.5,21.8 14.5,21.8 14.5,21.8 
	14.5,21.8 14.6,22.6 14.8,23.5 14.9,24.4 "/>
<polygon class="st1" points="23,25.3 22.9,25.1 22.8,24.9 22.7,24.7 22.6,24.6 22.4,24.4 22.3,24.2 22.2,24 22.1,23.8 22,23.5 
	21.9,23.3 21.8,23 21.8,22.8 21.8,22.9 22,22.9 22.1,23 22.2,23 22.4,23 22.4,23.1 22.5,23.2 22.5,23.3 22.5,23.3 22.6,23.3 
	22.6,23.3 22.6,23.3 22.6,23.3 22.7,23.3 22.7,23.3 22.7,23.2 23,23.4 22.9,23.5 23,23.6 23,23.7 23.1,23.8 23.2,23.9 23.3,23.9 
	23.3,23.9 23.4,23.9 23.4,24 23.4,24 23.4,24 23.4,24 23.5,24 23.5,24 23.6,24 23.6,23.9 23.5,23.9 23.5,23.8 23.5,23.6 23.5,23.6 
	23.5,23.6 23.6,23.6 23.6,23.6 23.8,24.5 23.6,24.7 23.4,24.9 23.2,25.1 "/>
<polygon class="st0" points="23,25.3 23.2,25.1 23.4,24.9 23.6,24.7 23.8,24.5 23.6,23.6 23.6,23.6 23.5,23.6 23.5,23.6 23.5,23.6 
	23.5,23.8 23.5,23.9 23.6,23.9 23.6,24 23.5,24 23.5,24 23.4,24 23.4,24 23.4,24 23.4,24 23.4,23.9 23.3,23.9 23.3,23.9 23.2,23.9 
	23.1,23.8 23,23.7 23,23.6 22.9,23.5 23,23.4 22.7,23.2 22.7,23.3 22.7,23.3 22.6,23.3 22.6,23.3 22.6,23.3 22.6,23.3 22.5,23.3 
	22.5,23.3 22.5,23.2 22.4,23.1 22.4,23 22.2,23 22.1,23 22,22.9 21.8,22.9 21.8,22.8 21.8,23 21.9,23.3 22,23.5 22.1,23.8 22.2,24 
	22.3,24.2 22.4,24.4 22.6,24.6 22.7,24.7 22.8,24.9 22.9,25.1 "/>
<polygon class="st1" points="32.1,25 32.1,25 32.1,25 32,25 32,24.9 31.9,24.8 31.9,24.7 31.9,24.7 31.8,24.7 31.7,24.7 31.7,24.7 
	31.6,24.6 31.6,24.5 31.5,24.4 31.5,24.3 31.5,24.2 31.6,24.2 31.6,24.2 31.7,24.1 31.7,24.1 31.7,24.1 31.8,24.2 31.8,24.2 
	31.8,24.3 32.1,24.5 32.2,24.6 32.2,24.7 32.3,24.8 32.2,25 32.2,25 32.2,25 "/>
<polygon class="st0" points="32.1,25 32.1,25 32.2,25 32.2,25 32.2,25 32.3,24.8 32.2,24.7 32.2,24.6 32.1,24.5 31.8,24.3 
	31.8,24.2 31.8,24.2 31.7,24.1 31.7,24.1 31.7,24.1 31.6,24.2 31.6,24.2 31.5,24.2 31.5,24.3 31.5,24.4 31.6,24.5 31.6,24.6 
	31.7,24.7 31.7,24.7 31.8,24.7 31.9,24.7 31.9,24.7 31.9,24.8 32,24.9 32,25 "/>
<polygon class="st1" points="27.7,24.2 27.5,24.2 27.4,24.2 27.3,24.2 27.1,24.2 27,24.1 26.8,24.1 26.7,24 26.6,23.9 26.4,23.9 
	26.3,23.8 26.2,23.7 26.2,23.7 26.3,23.7 26.4,23.7 26.4,23.7 26.5,23.6 26.6,23.6 26.7,23.6 26.8,23.6 27,23.6 27,23.5 27.1,23.5 
	27.2,23.4 27.3,23.3 27.3,23.2 27.3,23.2 27.4,23.1 27.4,23.1 27.4,23 27.4,22.9 27.7,22.3 27.6,22.1 27.6,22.1 27.7,22 27.7,22 
	27.7,22 27.7,21.9 27.7,21.9 27.7,21.9 27.5,21.8 27.3,21.8 27.1,21.7 26.9,21.7 26.7,21.8 26.5,21.8 26.3,21.8 26.2,21.9 
	26.2,22.3 26.2,22.4 25.9,22.5 25.8,22.7 25.6,22.9 25.5,23 25.3,22.7 25.3,22.6 25.3,22.6 25.3,22.6 25.3,22.6 25.3,22.6 
	25.4,22.7 25.4,22.7 25.4,22.7 25.4,22.7 25.4,22.7 25.4,22.8 25.4,22.8 25.5,22.8 25.6,22.7 25.6,22.7 25.7,22.6 25.7,22.4 
	25.8,22.2 26,22 26.1,21.8 25.9,21.7 25.8,21.4 25.6,21.4 25.5,21.5 25.5,21.6 25.5,21.7 25.5,21.8 25.5,21.9 25.4,21.9 25.4,22 
	25.3,22 25.3,22 25.3,22 25.3,21.9 25.2,21.8 25.2,21.8 25,21.8 25,21.8 25,21.8 24.9,21.9 24.9,21.9 24.8,21.9 24.6,21.9 
	24.5,21.9 24.4,22 24.2,22 24.1,22 24,22 23.8,22.1 23.8,22.1 23.7,22.1 23.7,22 23.7,22 23.7,22 23.8,21.9 23.8,21.9 23.8,21.9 
	23.9,21.7 24,21.5 24.1,21.3 24.2,21.1 24.3,21.1 24.4,21.1 24.5,21.1 24.6,21.2 24.6,21.2 24.7,21.2 24.7,21.2 24.8,21.2 
	24.8,21.1 25,21.2 25,21.4 25,21.5 25.1,21.7 25.2,21.7 25.2,21.8 25.3,21.8 25.4,21.8 25.4,21.8 25.4,21.7 25.5,21.7 25.5,21.7 
	25.5,21.4 25.6,21 25.6,20.7 25.6,20.4 25.8,20.3 25.8,20.2 26,20.1 26.1,20 26.3,19.7 26.3,19.6 26.4,19.6 26.4,19.6 26.5,19.6 
	26.6,19.6 26.8,19.5 26.9,19.4 27,19.4 27.1,19.3 27.2,19.2 27.3,19.1 27.4,19 27.3,18.4 27.2,18.3 27.2,18.3 27.2,18.3 27.2,18.3 
	27.8,18.2 27.8,18.2 27.8,18.3 27.9,18.3 27.9,18.3 27.9,18.3 27.9,18.3 27.9,18.4 27.9,18.4 27.9,18.4 27.8,18.4 27.8,18.3 
	27.7,18.3 27.6,18.3 27.5,18.4 27.4,18.4 27.4,18.5 27.4,18.7 27.5,18.8 27.6,18.9 27.8,18.9 27.8,19 27.8,19 27.9,19.1 27.9,19.2 
	28.1,19.1 28.2,19.1 28.3,19.2 28.4,19.2 28.5,19.2 28.6,19.2 28.6,19.3 28.6,19.4 28.8,19.5 28.9,19.6 29,19.7 29.1,19.8 
	29.4,19.9 29.3,20 29.3,20 29.3,20 29.3,20 29.3,20.1 29.3,20.2 29.4,20.3 29.4,20.4 29.4,20.5 29.4,20.5 29.4,20.5 29.4,20.6 
	29.3,20.6 29.3,20.6 29.3,20.7 29.3,20.8 29.2,20.9 29.2,21 29.2,21.1 29.2,21.1 29.3,21.1 29.4,21.2 29.4,21.2 29.4,21.2 
	29.4,21.3 29.5,21.3 29.5,21.4 29.6,21.6 29.6,21.8 29.7,22.1 29.9,22.3 29.8,22.5 29.8,22.7 29.7,23 29.6,23.1 29.5,23.2 
	29.4,23.2 29.3,23.2 29.2,23.2 29.1,23.2 29,23.2 28.9,23.2 28.8,23.2 28.6,23.4 28.5,23.6 28.4,23.9 28.3,24.2 27.8,24.3 "/>
<polygon class="st0" points="27.8,24.3 28.3,24.2 28.4,23.9 28.5,23.6 28.6,23.4 28.8,23.2 28.9,23.2 29,23.2 29.1,23.2 29.2,23.2 
	29.3,23.2 29.4,23.2 29.5,23.2 29.6,23.1 29.7,23 29.8,22.7 29.8,22.5 29.9,22.3 29.7,22.1 29.6,21.8 29.6,21.6 29.5,21.4 
	29.5,21.3 29.4,21.3 29.4,21.2 29.4,21.2 29.4,21.2 29.3,21.1 29.2,21.1 29.2,21.1 29.2,21 29.2,20.9 29.3,20.8 29.3,20.7 
	29.3,20.6 29.3,20.6 29.4,20.6 29.4,20.5 29.4,20.5 29.4,20.5 29.4,20.4 29.4,20.3 29.3,20.2 29.3,20.1 29.3,20 29.3,20 29.3,20 
	29.3,20 29.4,19.9 29.1,19.8 29,19.7 28.9,19.6 28.8,19.5 28.6,19.4 28.6,19.3 28.6,19.2 28.5,19.2 28.4,19.2 28.3,19.2 28.2,19.1 
	28.1,19.1 27.9,19.2 27.9,19.1 27.8,19 27.8,19 27.8,18.9 27.6,18.9 27.5,18.8 27.4,18.7 27.4,18.5 27.4,18.4 27.5,18.4 27.6,18.3 
	27.7,18.3 27.8,18.3 27.8,18.4 27.9,18.4 27.9,18.4 27.9,18.4 27.9,18.3 27.9,18.3 27.9,18.3 27.9,18.3 27.8,18.3 27.8,18.2 
	27.8,18.2 27.2,18.3 27.2,18.3 27.2,18.3 27.2,18.3 27.3,18.4 27.4,19 27.3,19.1 27.2,19.2 27.1,19.3 27,19.4 26.9,19.4 26.8,19.5 
	26.6,19.6 26.5,19.6 26.4,19.6 26.4,19.6 26.3,19.6 26.3,19.7 26.1,20 26,20.1 25.8,20.2 25.8,20.3 25.6,20.4 25.6,20.7 25.6,21 
	25.5,21.4 25.5,21.7 25.5,21.7 25.4,21.7 25.4,21.8 25.4,21.8 25.3,21.8 25.2,21.8 25.2,21.7 25.1,21.7 25,21.5 25,21.4 25,21.2 
	24.8,21.1 24.8,21.2 24.7,21.2 24.7,21.2 24.6,21.2 24.6,21.2 24.5,21.1 24.4,21.1 24.3,21.1 24.2,21.1 24.1,21.3 24,21.5 
	23.9,21.7 23.8,21.9 23.8,21.9 23.8,21.9 23.7,22 23.7,22 23.7,22 23.7,22.1 23.8,22.1 23.8,22.1 24,22 24.1,22 24.2,22 24.4,22 
	24.5,21.9 24.6,21.9 24.8,21.9 24.9,21.9 24.9,21.9 25,21.8 25,21.8 25,21.8 25.2,21.8 25.2,21.8 25.3,21.9 25.3,22 25.3,22 
	25.3,22 25.4,22 25.4,21.9 25.5,21.9 25.5,21.8 25.5,21.7 25.5,21.6 25.5,21.5 25.6,21.4 25.8,21.4 25.9,21.7 26.1,21.8 26,22 
	25.8,22.2 25.7,22.4 25.7,22.6 25.6,22.7 25.6,22.7 25.5,22.8 25.4,22.8 25.4,22.8 25.4,22.7 25.4,22.7 25.4,22.7 25.4,22.7 
	25.4,22.7 25.3,22.6 25.3,22.6 25.3,22.6 25.3,22.6 25.3,22.6 25.3,22.7 25.5,23 25.6,22.9 25.8,22.7 25.9,22.5 26.2,22.4 
	26.2,22.3 26.2,21.9 26.3,21.8 26.5,21.8 26.7,21.8 26.9,21.7 27.1,21.7 27.3,21.8 27.5,21.8 27.7,21.9 27.7,21.9 27.7,21.9 
	27.7,22 27.7,22 27.7,22 27.6,22.1 27.6,22.1 27.7,22.3 27.4,22.9 27.4,23 27.4,23.1 27.4,23.1 27.3,23.2 27.3,23.2 27.3,23.3 
	27.2,23.4 27.1,23.5 27,23.5 27,23.6 26.8,23.6 26.7,23.6 26.6,23.6 26.5,23.6 26.4,23.7 26.4,23.7 26.3,23.7 26.2,23.7 26.2,23.7 
	26.3,23.8 26.4,23.9 26.6,23.9 26.7,24 26.8,24.1 27,24.1 27.1,24.2 27.3,24.2 27.4,24.2 27.5,24.2 27.7,24.2 "/>
<polygon class="st1" points="24.2,24.1 24.2,24.1 24.2,24.1 24.3,24 24.4,23.8 24.5,23.7 24.6,23.5 24.8,23.7 24.6,23.7 24.5,23.9 
	24.3,24 "/>
<polygon class="st0" points="24.2,24.1 24.3,24 24.5,23.9 24.6,23.7 24.8,23.7 24.6,23.5 24.5,23.7 24.4,23.8 24.3,24 24.2,24.1 
	24.2,24.1 "/>
<polygon class="st1" points="18.2,23.6 18.2,23.6 18.2,23.6 18.2,23.1 18.2,22.6 18.1,22.2 18,21.7 18.1,21.8 18.2,21.8 18.2,21.8 
	18.4,21.8 18.5,21.8 18.6,21.8 18.7,21.8 18.8,21.8 18.6,21.9 18.6,22.1 18.5,22.2 18.5,22.4 18.4,22.6 18.4,22.7 18.4,22.9 
	18.5,23 18.6,23.1 18.6,23.1 18.4,23.2 18.4,23.4 18.3,23.5 "/>
<polygon class="st0" points="18.2,23.6 18.3,23.5 18.4,23.4 18.4,23.2 18.6,23.1 18.6,23.1 18.5,23 18.4,22.9 18.4,22.7 18.4,22.6 
	18.5,22.4 18.5,22.2 18.6,22.1 18.6,21.9 18.8,21.8 18.7,21.8 18.6,21.8 18.5,21.8 18.4,21.8 18.2,21.8 18.2,21.8 18.1,21.8 
	18,21.7 18.1,22.2 18.2,22.6 18.2,23.1 18.2,23.6 18.2,23.6 "/>
<polygon class="st1" points="37.4,23.5 37.3,23.2 37.1,22.9 36.9,22.7 36.7,22.5 36.7,22.4 36.6,22.2 36.6,22.1 36.6,22 36.5,21.9 
	36.4,21.8 36.3,21.7 36.2,21.6 36.4,21.7 36.6,21.8 36.8,21.8 37,21.8 37.2,21.8 37.4,21.8 37.6,21.8 37.8,21.8 37.8,21.8 
	37.8,21.8 37.8,21.9 37.8,21.9 37.7,22.3 37.7,22.7 37.6,23.1 37.5,23.5 "/>
<polygon class="st0" points="37.5,23.5 37.6,23.1 37.7,22.7 37.7,22.3 37.8,21.9 37.8,21.9 37.8,21.8 37.8,21.8 37.8,21.8 
	37.6,21.8 37.4,21.8 37.2,21.8 37,21.8 36.8,21.8 36.6,21.8 36.4,21.7 36.2,21.6 36.3,21.7 36.4,21.8 36.5,21.9 36.6,22 36.6,22.1 
	36.6,22.2 36.7,22.4 36.7,22.5 36.9,22.7 37.1,22.9 37.3,23.2 37.4,23.5 "/>
<polygon points="5.6,23 5.6,23 5.5,22.3 5.3,21.6 5.1,21 4.9,20.3 4.6,19.7 4.4,19 4.2,18.4 4,17.7 3.9,17 3.9,16.3 4,15.6 4,14.8 
	4.2,14.1 4.4,13.5 4.7,12.8 5.1,12.2 5.2,12 5.2,11.9 5.4,11.7 5.4,11.6 5.5,11.5 5.6,11.3 5.8,11.2 5.9,11 5.9,11 6,10.9 6,10.9 
	6.1,10.9 5.7,11.7 5.5,12.6 5.4,13.6 5.5,14.5 5.7,15.9 5.8,17.4 5.7,18.8 5.7,20.2 5.7,20.2 5.8,19.8 5.8,19.5 5.9,19.1 6,18.8 
	6.1,18.5 6.3,18.1 6.4,17.8 6.6,17.6 7,17 7.4,16.6 7.9,16.1 8.4,15.6 8.9,15.2 9.4,14.7 9.8,14.3 10.1,13.7 10,14.1 9.9,14.6 
	9.8,15 9.6,15.5 9.5,15.9 9.3,16.3 9.1,16.7 8.9,17.1 8.5,17.8 8,18.5 7.5,19.1 7,19.8 6.6,20.5 6.2,21.3 5.8,22.1 5.6,23 "/>
<polygon class="st0" points="5.6,23 5.8,22.1 6.2,21.3 6.6,20.5 7,19.8 7.5,19.1 8,18.5 8.5,17.8 8.9,17.1 9.1,16.7 9.3,16.3 
	9.5,15.9 9.6,15.5 9.8,15 9.9,14.6 10,14.1 10.1,13.7 9.8,14.3 9.4,14.7 8.9,15.2 8.4,15.6 7.9,16.1 7.4,16.6 7,17 6.6,17.6 
	6.4,17.8 6.3,18.1 6.1,18.5 6,18.8 5.9,19.1 5.8,19.5 5.8,19.8 5.7,20.2 5.7,20.2 5.7,18.8 5.8,17.4 5.7,15.9 5.5,14.5 5.4,13.6 
	5.5,12.6 5.7,11.7 6.1,10.9 6,10.9 6,10.9 5.9,11 5.9,11 5.8,11.2 5.6,11.3 5.5,11.5 5.4,11.6 5.4,11.7 5.2,11.9 5.2,12 5.1,12.2 
	4.7,12.8 4.4,13.5 4.2,14.1 4,14.8 4,15.6 3.9,16.3 3.9,17 4,17.7 4.2,18.4 4.4,19 4.6,19.7 4.9,20.3 5.1,21 5.3,21.6 5.5,22.3 
	5.6,23 5.6,23 "/>
<polygon points="50.2,22.7 50,21.8 49.7,21.1 49.3,20.4 48.9,19.7 48.5,19.1 48,18.5 47.5,17.9 47,17.2 46.8,16.8 46.5,16.4 
	46.3,16 46.1,15.5 45.9,15 45.7,14.5 45.6,13.9 45.5,13.4 45.8,13.8 46,14.1 46.3,14.5 46.6,14.8 46.9,15.1 47.3,15.4 47.6,15.7 
	48,16 48.3,16.3 48.6,16.7 48.9,17 49.2,17.3 49.4,17.7 49.6,18.1 49.8,18.5 49.9,19 49.9,19.1 49.9,19.2 49.9,19.3 50,19.4 
	50,19.5 50,19.7 50,19.8 50.1,19.9 50.1,19.9 50.1,19.8 50.1,19.8 50,17.9 50,16 50.1,14.1 50.1,12.2 50,11.7 49.9,11.3 49.7,10.9 
	49.5,10.5 49.5,10.5 49.5,10.5 49.6,10.5 49.6,10.6 50.2,11.3 50.7,12.1 51.1,13 51.5,13.9 51.7,14.9 51.8,15.9 51.7,16.9 
	51.6,17.9 51.4,18.5 51.2,19.1 51,19.7 50.8,20.3 50.6,20.9 50.4,21.4 50.3,22.1 50.2,22.7 "/>
<polygon class="st0" points="50.2,22.7 50.3,22.1 50.4,21.4 50.6,20.9 50.8,20.3 51,19.7 51.2,19.1 51.4,18.5 51.6,17.9 51.7,16.9 
	51.8,15.9 51.7,14.9 51.5,13.9 51.1,13 50.7,12.1 50.2,11.3 49.6,10.6 49.6,10.5 49.5,10.5 49.5,10.5 49.5,10.5 49.7,10.9 
	49.9,11.3 50,11.7 50.1,12.2 50.1,14.1 50,16 50,17.9 50.1,19.8 50.1,19.8 50.1,19.9 50.1,19.9 50,19.8 50,19.7 50,19.5 50,19.4 
	49.9,19.3 49.9,19.2 49.9,19.1 49.9,19 49.8,18.5 49.6,18.1 49.4,17.7 49.2,17.3 48.9,17 48.6,16.7 48.3,16.3 48,16 47.6,15.7 
	47.3,15.4 46.9,15.1 46.6,14.8 46.3,14.5 46,14.1 45.8,13.8 45.5,13.4 45.6,13.9 45.7,14.5 45.9,15 46.1,15.5 46.3,16 46.5,16.4 
	46.8,16.8 47,17.2 47.5,17.9 48,18.5 48.5,19.1 48.9,19.7 49.3,20.4 49.7,21.1 50,21.8 50.2,22.7 "/>
<polygon class="st1" points="16.9,20.9 16.5,20.8 16.2,20.8 15.9,20.8 15.5,20.8 15.2,20.9 14.9,20.9 14.6,20.9 14.6,20.2 
	14.7,19.5 14.8,18.9 15,18.2 15.1,17.6 15.3,16.9 15.5,16.3 15.8,15.6 16,15.2 16.3,14.7 16.6,14.3 16.9,13.9 17.2,13.5 17.5,13 
	17.8,12.6 18.1,12.2 18.3,12.4 18.5,12.7 18.7,12.9 19,13.1 19.2,13.4 19.4,13.6 19.7,13.8 19.9,14 19.6,14.4 19.2,14.9 18.9,15.3 
	18.6,15.7 18.4,16.2 18.1,16.7 17.9,17.2 17.7,17.8 17.4,18.5 17.2,19.3 17.1,20.1 17.2,20.9 "/>
<polygon class="st0" points="17.2,20.9 17.1,20.1 17.2,19.3 17.4,18.5 17.7,17.8 17.9,17.2 18.1,16.7 18.4,16.2 18.6,15.7 
	18.9,15.3 19.2,14.9 19.6,14.4 19.9,14 19.7,13.8 19.4,13.6 19.2,13.4 19,13.1 18.7,12.9 18.5,12.7 18.3,12.4 18.1,12.2 17.8,12.6 
	17.5,13 17.2,13.5 16.9,13.9 16.6,14.3 16.3,14.7 16,15.2 15.8,15.6 15.5,16.3 15.3,16.9 15.1,17.6 15,18.2 14.8,18.9 14.7,19.5 
	14.6,20.2 14.6,20.9 14.9,20.9 15.2,20.9 15.5,20.8 15.9,20.8 16.2,20.8 16.5,20.8 16.9,20.9 "/>
<polygon class="st1" points="18,20.9 18.1,20.2 18.2,19.6 18.4,18.9 18.6,18.3 18.8,17.6 19,17 19.3,16.5 19.6,16 19.8,15.8 
	19.9,15.6 20,15.5 20.1,15.3 20.2,15.2 20.4,15 20.5,14.8 20.6,14.7 20.8,14.9 21.1,15.2 21.3,15.4 21.6,15.6 21.8,15.9 22.1,16.1 
	22.3,16.3 22.6,16.5 22.5,16.5 22.4,16.5 22.3,16.6 22.3,16.6 22.2,16.8 22,17 21.8,17.1 21.6,17.2 21.4,17.3 21.2,17.5 21.1,17.6 
	21,17.8 20.9,17.9 20.8,17.9 20.7,18 20.6,18 20.5,18.1 20.4,18.1 20.3,18.2 20.2,18.3 20.3,18.3 20.3,18.4 20.3,18.4 20.3,18.5 
	20.2,18.6 20,18.6 19.9,18.6 19.7,18.6 19.6,18.7 19.5,18.8 19.5,18.9 19.4,19.1 19.3,19.2 19.2,19.4 19.1,19.7 19,19.8 19,20.1 
	19,20.3 19,20.6 19.1,20.9 19,20.8 18.8,20.8 18.7,20.8 18.6,20.8 18.4,20.8 18.3,20.8 18.2,20.9 "/>
<polygon class="st0" points="18,20.9 18.2,20.9 18.3,20.8 18.4,20.8 18.6,20.8 18.7,20.8 18.8,20.8 19,20.8 19.1,20.9 19,20.6 
	19,20.3 19,20.1 19,19.8 19.1,19.7 19.2,19.4 19.3,19.2 19.4,19.1 19.5,18.9 19.5,18.8 19.6,18.7 19.7,18.6 19.9,18.6 20,18.6 
	20.2,18.6 20.3,18.5 20.3,18.4 20.3,18.4 20.3,18.3 20.2,18.3 20.3,18.2 20.4,18.1 20.5,18.1 20.6,18 20.7,18 20.8,17.9 20.9,17.9 
	21,17.8 21.1,17.6 21.2,17.5 21.4,17.3 21.6,17.2 21.8,17.1 22,17 22.2,16.8 22.3,16.6 22.3,16.6 22.4,16.5 22.5,16.5 22.6,16.5 
	22.3,16.3 22.1,16.1 21.8,15.9 21.6,15.6 21.3,15.4 21.1,15.2 20.8,14.9 20.6,14.7 20.5,14.8 20.4,15 20.2,15.2 20.1,15.3 20,15.5 
	19.9,15.6 19.8,15.8 19.6,16 19.3,16.5 19,17 18.8,17.6 18.6,18.3 18.4,18.9 18.2,19.6 18.1,20.2 "/>
<polygon class="st1" points="11,20.2 11,19.6 11.1,18.9 11.2,18.3 11.3,17.9 11.4,17.6 11.4,17.2 11.5,16.9 11.8,16.2 12,15.5 
	12.2,14.9 12.5,14.3 12.8,13.7 13.1,13.1 13.4,12.5 13.8,12 14,11.7 14.2,11.4 14.4,11.1 14.6,10.8 14.9,10.5 15.1,10.2 15.4,9.9 
	15.6,9.7 15.8,9.9 16,10.2 16.3,10.5 16.5,10.7 16.8,11 17,11.2 17.3,11.4 17.5,11.6 17.4,11.7 17.4,11.7 17.4,11.7 17.3,11.7 
	16.5,12.6 15.8,13.6 15.2,14.7 14.7,15.8 14.2,17 13.9,18.3 13.7,19.6 13.7,20.9 13.3,20.9 13,20.8 12.6,20.8 12.3,20.8 11.9,20.8 
	11.6,20.8 11.3,20.9 10.9,20.9 "/>
<polygon class="st0" points="10.9,20.9 11.3,20.9 11.6,20.8 11.9,20.8 12.3,20.8 12.6,20.8 13,20.8 13.3,20.9 13.7,20.9 13.7,19.6 
	13.9,18.3 14.2,17 14.7,15.8 15.2,14.7 15.8,13.6 16.5,12.6 17.3,11.7 17.4,11.7 17.4,11.7 17.4,11.7 17.5,11.6 17.3,11.4 17,11.2 
	16.8,11 16.5,10.7 16.3,10.5 16,10.2 15.8,9.9 15.6,9.7 15.4,9.9 15.1,10.2 14.9,10.5 14.6,10.8 14.4,11.1 14.2,11.4 14,11.7 
	13.8,12 13.4,12.5 13.1,13.1 12.8,13.7 12.5,14.3 12.2,14.9 12,15.5 11.8,16.2 11.5,16.9 11.4,17.2 11.4,17.6 11.3,17.9 11.2,18.3 
	11.1,18.9 11,19.6 11,20.2 "/>
<polygon class="st1" points="42.2,20.3 42.2,19.8 42.1,19.3 42,18.7 41.9,18.2 41.8,17.7 41.6,17.2 41.4,16.6 41.3,16.3 41.2,16 
	41,15.6 40.9,15.3 40.8,15 40.7,14.7 40.5,14.4 40.3,14.1 40.2,13.9 40,13.7 39.9,13.5 39.7,13.3 39.6,13.2 39.5,13.1 39.4,13 
	39.3,12.8 39.2,12.6 39,12.5 38.9,12.3 38.7,12.2 38.6,12.1 38.4,11.9 38.3,11.7 38.2,11.6 38.1,11.6 38.1,11.5 38.1,11.5 
	38.1,11.5 38.1,11.5 38.1,11.5 38.1,11.5 38.1,11.5 38.3,11.5 40,9.8 40.1,9.6 40.1,9.6 40.2,9.6 40.2,9.7 40.2,9.7 40.7,10.2 
	41.2,10.8 41.6,11.4 42,12 42.4,12.6 42.8,13.3 43.1,14 43.4,14.7 43.7,15.4 44,16.1 44.2,16.9 44.4,17.6 44.6,18.4 44.8,19.2 
	44.9,19.9 44.9,20.7 44.6,20.7 44.2,20.7 43.9,20.7 43.5,20.7 43.2,20.7 42.8,20.7 42.5,20.8 42.2,20.9 "/>
<polygon class="st0" points="42.2,20.9 42.5,20.8 42.8,20.7 43.2,20.7 43.5,20.7 43.9,20.7 44.2,20.7 44.6,20.7 44.9,20.7 
	44.9,19.9 44.8,19.2 44.6,18.4 44.4,17.6 44.2,16.9 44,16.1 43.7,15.4 43.4,14.7 43.1,14 42.8,13.3 42.4,12.6 42,12 41.6,11.4 
	41.2,10.8 40.7,10.2 40.2,9.7 40.2,9.7 40.2,9.6 40.1,9.6 40.1,9.6 40,9.8 38.3,11.5 38.1,11.5 38.1,11.5 38.1,11.5 38.1,11.5 
	38.1,11.5 38.1,11.5 38.1,11.5 38.1,11.6 38.2,11.6 38.3,11.7 38.4,11.9 38.6,12.1 38.7,12.2 38.9,12.3 39,12.5 39.2,12.6 
	39.3,12.8 39.4,13 39.5,13.1 39.6,13.2 39.7,13.3 39.9,13.5 40,13.7 40.2,13.9 40.3,14.1 40.5,14.4 40.7,14.7 40.8,15 40.9,15.3 
	41,15.6 41.2,16 41.3,16.3 41.4,16.6 41.6,17.2 41.8,17.7 41.9,18.2 42,18.7 42.1,19.3 42.2,19.8 42.2,20.3 "/>
<polygon class="st1" points="38.7,20.8 38.7,20.4 38.7,20 38.6,19.7 38.5,19.4 38.5,19.2 38.6,18.9 38.6,18.7 38.6,18.5 38.6,18.5 
	38.6,18.4 38.6,18.4 38.5,18.4 38.5,18.4 38.4,18.5 38.3,18.5 38.2,18.6 38.1,18.9 38,19.2 37.9,19.5 37.7,19.8 37.7,20.1 
	37.7,20.3 37.7,20.6 37.8,20.8 36.9,20.7 36.9,20.7 37,20.6 36.9,20.5 36.9,20.4 36.9,20.3 36.9,20.2 36.9,20.1 37,20.1 37.1,20 
	37.2,20 37.3,20 37.4,20 37.4,19.9 37.5,19.9 37.5,19.8 37.7,19.6 37.8,19.3 37.9,19 38,18.8 38.1,18.5 38.1,18.1 38.1,17.7 
	38.2,17.3 38.1,17.1 38.1,16.9 38,16.7 38,16.5 37.9,16.5 37.8,16.4 37.7,16.4 37.6,16.4 37.6,16.4 37.5,16.4 37.5,16.2 37.5,16.1 
	37.6,16.1 37.6,16.1 37.7,16 37.7,16 37.7,15.9 37.7,15.8 37.7,15.8 37.6,15.7 37.5,15.7 37.4,15.7 37.3,15.8 37.3,15.7 37.3,15.7 
	37.4,15.6 37.4,15.5 37.5,15.4 37.5,15.3 37.4,15.2 37.4,15.2 37.4,15.2 37.3,15.1 37.1,15.2 37,15.2 36.9,15.3 36.7,15.3 
	36.7,15.2 36.7,15.2 36.6,15.2 36.6,15.2 36.6,15.1 36.6,15.1 36.6,15 36.6,15 36.6,14.8 36.5,14.7 36.3,14.5 36.2,14.4 36.1,14.3 
	36.1,14.3 36,14.3 35.9,14.2 35.8,13.9 35.7,13.6 35.4,13.3 35.3,13 35.2,12.8 35.1,12.6 35.1,12.5 35,12.3 34.9,12.2 34.8,12.1 
	34.6,12 34.5,12 34.4,11.9 34.3,11.8 34.2,11.7 34.1,11.6 34,11.5 33.9,11.3 33.8,11.2 33.7,11.1 33.6,11.1 33.6,11.1 33.6,11.1 
	33.5,11.2 33.5,11.2 33.5,11.2 33.5,11.3 33.5,11.4 33.7,11.5 33.8,11.7 33.8,11.9 33.7,11.9 33.7,11.9 33.7,11.9 33.7,11.9 
	33.8,12.1 33.9,12.3 34,12.4 34.1,12.5 34,12.5 33.9,12.4 33.9,12.4 33.8,12.3 33.5,12.1 33.3,12 33,11.8 32.6,11.6 32.3,11.5 
	31.9,11.3 31.6,11.2 31.3,11.1 30.9,11 30.5,10.9 30.2,10.8 29.8,10.7 29.4,10.7 29,10.6 28.7,10.6 28.3,10.6 28.3,10.6 28.3,10.6 
	28.3,9.9 28.3,9.3 28.3,8.6 28.3,8 28.6,8.1 28.6,8.1 28.6,8.1 28.7,8.1 28.7,8.1 29,8.1 29.3,8.2 29.6,8.2 29.9,8.2 30.2,8.3 
	30.5,8.3 30.9,8.4 31.2,8.5 31.6,8.6 32,8.7 32.4,8.8 32.8,9 33.2,9.1 33.5,9.3 33.8,9.5 34.1,9.8 34.1,9.9 34.2,10 34.2,10.1 
	34.2,10.1 34.3,10.3 34.4,10.6 34.5,10.7 34.6,10.8 34.7,11 34.6,11.2 34.6,11.3 34.6,11.5 34.7,11.6 34.8,11.8 34.8,12 34.9,12.1 
	35,12.1 35.2,12.1 35.3,12 35.4,11.9 35.5,11.9 35.5,11.9 35.7,11.9 35.7,11.9 36,12.2 36.1,12.6 36.2,13 36.3,13.4 36.3,13.5 
	36.4,13.5 36.5,13.6 36.6,13.6 36.7,13.7 36.9,13.7 37,13.8 37.1,13.8 37.1,13.9 37.1,13.9 37.1,13.9 37.1,14 37.2,14.1 37.3,14.3 
	37.5,14.4 37.7,14.4 37.8,14.5 37.9,14.6 38.1,14.7 38.2,14.8 38.3,14.8 38.5,14.9 38.6,15 38.7,15.1 38.9,15.3 39.1,15.5 
	39.2,15.7 39.4,15.9 39.5,16.1 39.6,16.1 39.8,16.1 40,16 40.1,16 40.2,16.2 40.3,16.4 40.4,16.6 40.5,16.9 40.7,17.4 40.8,17.9 
	40.9,18.3 41,18.8 41.1,19.3 41.2,19.8 41.2,20.3 41.3,20.7 41,20.7 40.7,20.7 40.4,20.7 40,20.7 39.7,20.7 39.4,20.7 39.1,20.8 
	38.8,20.8 "/>
<polygon class="st0" points="38.8,20.8 39.1,20.8 39.4,20.7 39.7,20.7 40,20.7 40.4,20.7 40.7,20.7 41,20.7 41.3,20.7 41.2,20.3 
	41.2,19.8 41.1,19.3 41,18.8 40.9,18.3 40.8,17.9 40.7,17.4 40.5,16.9 40.4,16.6 40.3,16.4 40.2,16.2 40.1,16 40,16 39.8,16.1 
	39.6,16.1 39.5,16.1 39.4,15.9 39.2,15.7 39.1,15.5 38.9,15.3 38.7,15.1 38.6,15 38.5,14.9 38.3,14.8 38.2,14.8 38.1,14.7 
	37.9,14.6 37.8,14.5 37.7,14.4 37.5,14.4 37.3,14.3 37.2,14.1 37.1,14 37.1,13.9 37.1,13.9 37.1,13.9 37.1,13.8 37,13.8 36.9,13.7 
	36.7,13.7 36.6,13.6 36.5,13.6 36.4,13.5 36.3,13.5 36.3,13.3 36.2,13 36.1,12.6 36,12.2 35.7,11.9 35.7,11.9 35.5,11.9 35.5,11.9 
	35.4,11.9 35.3,12 35.2,12.1 35,12.1 34.9,12.1 34.8,12 34.8,11.8 34.7,11.6 34.6,11.5 34.6,11.3 34.6,11.2 34.7,11 34.6,10.8 
	34.5,10.7 34.4,10.6 34.3,10.3 34.2,10.1 34.2,10.1 34.2,10 34.1,9.9 34.1,9.8 33.8,9.5 33.5,9.3 33.2,9.1 32.8,9 32.4,8.8 32,8.7 
	31.6,8.6 31.2,8.5 30.9,8.4 30.5,8.3 30.2,8.3 29.9,8.2 29.6,8.2 29.3,8.2 29,8.1 28.7,8.1 28.7,8.1 28.6,8.1 28.6,8.1 28.6,8.1 
	28.3,8 28.3,8.6 28.3,9.3 28.3,9.9 28.3,10.6 28.3,10.6 28.3,10.6 28.7,10.6 29,10.6 29.4,10.7 29.8,10.7 30.2,10.8 30.5,10.9 
	30.9,11 31.3,11.1 31.6,11.2 31.9,11.3 32.3,11.5 32.6,11.6 33,11.8 33.3,12 33.5,12.1 33.8,12.3 33.9,12.4 33.9,12.4 34,12.5 
	34.1,12.5 34,12.4 33.9,12.3 33.8,12.1 33.7,11.9 33.7,11.9 33.7,11.9 33.7,11.9 33.8,11.9 33.8,11.7 33.7,11.5 33.5,11.4 
	33.5,11.3 33.5,11.2 33.5,11.2 33.5,11.2 33.6,11.1 33.6,11.1 33.6,11.1 33.7,11.1 33.8,11.2 33.9,11.3 34,11.5 34.1,11.6 
	34.2,11.7 34.3,11.8 34.4,11.9 34.5,12 34.6,12 34.8,12.1 34.9,12.2 35,12.3 35.1,12.5 35.1,12.6 35.2,12.8 35.3,13 35.4,13.3 
	35.7,13.6 35.8,13.9 35.9,14.2 36,14.3 36.1,14.3 36.1,14.3 36.2,14.4 36.3,14.5 36.5,14.7 36.6,14.8 36.6,15 36.6,15 36.6,15.1 
	36.6,15.1 36.6,15.2 36.6,15.2 36.7,15.2 36.7,15.2 36.7,15.3 36.9,15.3 37,15.2 37.1,15.2 37.3,15.1 37.4,15.2 37.4,15.2 
	37.4,15.2 37.5,15.3 37.5,15.4 37.4,15.5 37.4,15.6 37.3,15.7 37.3,15.7 37.3,15.8 37.4,15.7 37.5,15.7 37.6,15.7 37.7,15.8 
	37.7,15.8 37.7,15.9 37.7,16 37.7,16 37.6,16.1 37.6,16.1 37.5,16.1 37.5,16.2 37.5,16.4 37.6,16.4 37.6,16.4 37.7,16.4 37.8,16.4 
	37.9,16.5 38,16.5 38,16.7 38.1,16.9 38.1,17.1 38.2,17.3 38.1,17.7 38.1,18.1 38.1,18.5 38,18.8 37.9,19 37.8,19.3 37.7,19.6 
	37.5,19.8 37.5,19.9 37.4,19.9 37.4,20 37.3,20 37.2,20 37.1,20 37,20.1 36.9,20.1 36.9,20.2 36.9,20.3 36.9,20.4 36.9,20.5 
	37,20.6 36.9,20.7 36.9,20.7 37.8,20.8 37.7,20.6 37.7,20.3 37.7,20.1 37.7,19.8 37.9,19.5 38,19.2 38.1,18.9 38.2,18.6 38.3,18.5 
	38.4,18.5 38.5,18.4 38.5,18.4 38.6,18.4 38.6,18.4 38.6,18.5 38.6,18.5 38.6,18.7 38.6,18.9 38.5,19.2 38.5,19.4 38.6,19.7 
	38.7,20 38.7,20.4 38.7,20.8 "/>
<path class="st0" d="M36.5,20.8h0.2H36.5z"/>
<polygon class="st1" points="36.8,19.6 36.7,19.6 36.7,19.6 36.7,19.6 36.7,19.5 36.7,19.4 36.7,19.3 36.8,19.2 36.9,19.1 36.9,19 
	36.9,18.9 37,18.9 37,18.8 37.1,18.8 37.1,18.8 37.1,18.7 37.1,18.6 37.1,18.6 37.1,18.5 36.9,18.5 36.8,18.3 36.7,18.2 36.6,18.1 
	36.5,18 36.2,18 36.1,18.1 35.9,18.1 35.8,18.3 35.7,18.3 35.7,18.3 35.7,18.3 35.5,18.1 35.5,18.1 35.7,17.8 35.7,17.8 35.7,17.7 
	35.7,17.7 35.7,17.7 35.6,17.7 35.6,17.7 35.6,17.6 35.5,17.6 35.4,17.5 35.4,17.4 35.3,17.3 35.3,17.2 35.2,17 35.1,17 35,17 
	34.9,16.9 34.7,16.9 34.6,16.9 34.5,16.9 34.3,16.9 34.2,16.9 34.1,16.9 33.9,16.9 33.8,16.9 33.7,16.9 33.5,16.8 33.4,16.8 
	33.3,16.7 33.2,16.8 33.1,16.8 33,16.8 33,16.9 32.9,17 32.9,17.1 32.9,17.2 32.9,17.3 32.8,17.3 32.8,17.4 32.8,17.5 32.7,17.6 
	32.6,17.5 32.5,17.3 32.6,17.2 32.7,17 32.9,16.9 33,16.8 33.1,16.7 33.2,16.5 33.3,16.4 33.4,16.3 33.7,16.1 33.9,15.9 34.1,15.6 
	34.3,15.4 34.5,15.2 34.7,15 34.9,14.8 35.1,14.6 35.2,14.8 35.4,15 35.5,15.2 35.7,15.4 35.8,15.5 36,15.7 36.1,15.9 36.2,16.1 
	36.2,16.3 36.2,16.4 36.1,16.6 36,16.8 36,16.8 36.1,16.9 36.1,16.9 36.1,17 36.2,17 36.4,17.1 36.5,17.2 36.6,17.3 36.7,17.3 
	36.8,17.4 36.9,17.5 37,17.6 37.2,17.8 37.3,18.1 37.4,18.5 37.5,18.9 37.4,19 37.4,19.2 37.3,19.3 37.2,19.5 37.1,19.6 37,19.6 
	36.9,19.6 "/>
<polygon class="st0" points="36.8,19.6 36.9,19.6 37,19.6 37.1,19.6 37.2,19.5 37.3,19.3 37.4,19.2 37.4,19 37.5,18.9 37.4,18.5 
	37.3,18.1 37.2,17.8 37,17.6 36.9,17.5 36.8,17.4 36.7,17.3 36.6,17.3 36.5,17.2 36.4,17.1 36.2,17 36.1,17 36.1,16.9 36.1,16.9 
	36,16.8 36,16.8 36.1,16.6 36.2,16.4 36.2,16.3 36.2,16.1 36.1,15.9 36,15.7 35.8,15.5 35.7,15.4 35.5,15.2 35.4,15 35.2,14.8 
	35.1,14.6 34.9,14.8 34.7,15 34.5,15.2 34.3,15.4 34.1,15.6 33.9,15.9 33.7,16.1 33.4,16.3 33.3,16.4 33.2,16.5 33.1,16.7 33,16.8 
	32.9,16.9 32.7,17 32.6,17.2 32.5,17.3 32.6,17.5 32.7,17.6 32.8,17.5 32.8,17.4 32.8,17.3 32.9,17.3 32.9,17.2 32.9,17.1 32.9,17 
	33,16.9 33,16.8 33.1,16.8 33.2,16.8 33.3,16.7 33.4,16.8 33.5,16.8 33.7,16.9 33.8,16.9 33.9,16.9 34.1,16.9 34.2,16.9 34.3,16.9 
	34.5,16.9 34.6,16.9 34.7,16.9 34.9,16.9 35,17 35.1,17 35.2,17 35.3,17.2 35.3,17.3 35.4,17.4 35.4,17.5 35.5,17.6 35.6,17.6 
	35.6,17.7 35.6,17.7 35.7,17.7 35.7,17.7 35.7,17.7 35.7,17.8 35.7,17.8 35.5,18.1 35.5,18.1 35.7,18.3 35.7,18.3 35.7,18.3 
	35.8,18.3 35.9,18.1 36.1,18.1 36.2,18 36.5,18 36.6,18.1 36.7,18.2 36.8,18.3 36.9,18.5 37.1,18.5 37.1,18.6 37.1,18.6 37.1,18.7 
	37.1,18.8 37.1,18.8 37,18.8 37,18.9 36.9,18.9 36.9,19 36.9,19.1 36.8,19.2 36.7,19.3 36.7,19.4 36.7,19.5 36.7,19.6 36.7,19.6 
	36.7,19.6 "/>
<polygon class="st1" points="30,18.3 30,18.3 29.9,18.2 29.9,18.2 29.8,18.1 29.8,18.1 29.7,18 29.6,17.9 29.4,17.9 29.3,18 
	29.1,18.1 28.9,18.1 28.9,18 29.2,17.8 29.3,17.8 29.4,17.7 29.5,17.7 29.6,17.6 29.7,17.6 29.8,17.5 29.9,17.4 30,17.3 30.1,17.1 
	30.1,16.9 30.2,16.7 30.1,16.5 30.1,16.4 30.1,16.4 30,16.3 29.9,16.3 29.8,16.4 29.8,16.4 29.7,16.5 29.7,16.5 29.5,16.6 
	29.3,16.7 29.2,16.9 29,17 28.4,16.8 28.3,16.3 28.4,15.9 28.3,15.4 28.3,15 28.6,15.1 29,15.2 29.4,15.2 29.7,15.3 30.1,15.4 
	30.5,15.6 30.8,15.7 31.1,15.9 31.2,15.9 31.3,16 31.4,16.1 31.5,16.1 31.6,16.2 31.7,16.3 31.8,16.3 31.9,16.4 31.8,16.4 
	31.6,16.5 31.5,16.6 31.4,16.7 31.4,16.7 31.4,16.8 31.4,16.8 31.4,16.8 31.6,17 31.8,16.9 31.7,17.1 31.5,17.2 31.4,17.3 
	31.2,17.4 31.1,17.5 30.9,17.6 30.7,17.7 30.6,17.9 30.5,17.9 30.5,18 30.5,18.1 30.5,18.2 30.4,18.2 30.1,18.3 "/>
<polygon class="st0" points="30.1,18.3 30.4,18.2 30.5,18.2 30.5,18.1 30.5,18 30.5,17.9 30.6,17.9 30.7,17.7 30.9,17.6 31.1,17.5 
	31.2,17.4 31.4,17.3 31.5,17.2 31.7,17.1 31.8,16.9 31.6,17 31.4,16.8 31.4,16.8 31.4,16.8 31.4,16.7 31.4,16.7 31.5,16.6 
	31.6,16.5 31.8,16.4 31.9,16.4 31.8,16.3 31.7,16.3 31.6,16.2 31.5,16.1 31.4,16.1 31.3,16 31.2,15.9 31.1,15.9 30.8,15.7 
	30.5,15.6 30.1,15.4 29.7,15.3 29.4,15.2 29,15.2 28.6,15.1 28.3,15 28.3,15.4 28.4,15.9 28.3,16.3 28.4,16.8 29,17 29.2,16.9 
	29.3,16.7 29.5,16.6 29.7,16.5 29.7,16.5 29.8,16.4 29.8,16.4 29.9,16.3 30,16.3 30.1,16.4 30.1,16.4 30.1,16.5 30.2,16.7 
	30.1,16.9 30.1,17.1 30,17.3 29.9,17.4 29.8,17.5 29.7,17.6 29.6,17.6 29.5,17.7 29.4,17.7 29.3,17.8 29.2,17.8 28.9,18 28.9,18.1 
	29.1,18.1 29.3,18 29.4,17.9 29.6,17.9 29.7,18 29.8,18.1 29.8,18.1 29.9,18.2 29.9,18.2 30,18.3 30,18.3 "/>
<polygon class="st1" points="25.5,17.7 25.4,17.7 25.4,17.6 25.4,17.6 25.4,17.6 25.3,17.6 25.2,17.7 25.1,17.7 25,17.7 25,17.6 
	24.9,17.5 24.8,17.5 24.7,17.4 24.7,17.4 24.6,17.5 24.6,17.5 24.6,17.5 24.6,17.5 24.6,17.6 24.6,17.6 24.6,17.7 24.5,17.7 
	24.3,17.5 24.3,17.5 24.4,17.4 24.4,17.4 24.4,17.4 24.4,17.3 24.4,17.3 24.4,17.3 24.2,17.1 23.7,16.8 23.5,16.8 23.6,16.8 
	23.6,16.7 23.7,16.7 23.7,16.6 24.1,16.3 24.5,16 24.9,15.8 25.4,15.6 25.8,15.4 26.3,15.2 26.8,15.1 27.3,15 27.3,15.4 27.3,15.8 
	27.3,16.2 27.3,16.6 27.4,16.7 27.4,16.8 27.4,16.9 27.4,17 27.3,16.8 27.1,16.9 27,16.9 26.8,16.9 26.6,16.9 26.6,16.8 26.6,16.8 
	26.6,16.7 26.6,16.6 26.6,16.6 26.6,16.6 26.5,16.6 26.5,16.6 26.3,16.8 26.2,16.9 26.2,17.1 26.2,17.3 26.1,17.4 26.1,17.5 
	26,17.6 26,17.6 25.6,17.7 "/>
<polygon class="st0" points="25.6,17.7 26,17.6 26,17.6 26.1,17.5 26.1,17.4 26.2,17.3 26.2,17.1 26.2,16.9 26.3,16.8 26.5,16.6 
	26.5,16.6 26.6,16.6 26.6,16.6 26.6,16.6 26.6,16.7 26.6,16.8 26.6,16.8 26.6,16.9 26.8,16.9 27,16.9 27.1,16.9 27.3,16.8 27.4,17 
	27.4,16.9 27.4,16.8 27.4,16.7 27.3,16.6 27.3,16.2 27.3,15.8 27.3,15.4 27.3,15 26.8,15.1 26.3,15.2 25.8,15.4 25.4,15.6 
	24.9,15.8 24.5,16 24.1,16.3 23.7,16.6 23.7,16.7 23.6,16.7 23.6,16.8 23.5,16.8 23.7,16.8 24.2,17.1 24.4,17.3 24.4,17.3 
	24.4,17.3 24.4,17.4 24.4,17.4 24.4,17.4 24.3,17.5 24.3,17.5 24.5,17.7 24.6,17.7 24.6,17.6 24.6,17.6 24.6,17.5 24.6,17.5 
	24.6,17.5 24.6,17.5 24.7,17.4 24.7,17.4 24.8,17.5 24.9,17.5 25,17.6 25,17.7 25.1,17.7 25.2,17.7 25.3,17.6 25.4,17.6 25.4,17.6 
	25.4,17.6 25.4,17.7 25.5,17.7 25.5,17.7 "/>
<polygon points="6.3,16.9 6.4,16 6.4,15.1 6.3,14.2 6.3,13.2 6.3,12.3 6.4,11.4 6.6,10.5 7.1,9.7 7.4,9.4 7.7,9 7.9,8.7 8.3,8.4 
	8.6,8.2 9,7.9 9.4,7.8 9.8,7.7 9.3,8.1 9.1,8.4 8.9,8.6 8.7,9 8.5,9.3 8.4,9.7 8.3,10 8.2,10.4 8.1,10.8 8.1,11 8,11.1 8,11.3 
	7.9,11.5 7.9,11.9 7.8,12.3 7.7,12.7 7.5,13.1 7.4,13.5 7.2,13.9 7.1,14.4 7,14.8 7,14.8 7.1,14.8 7.3,14.3 7.5,13.9 7.8,13.5 
	8.1,13.1 8.5,12.7 8.8,12.4 9.2,12.1 9.6,11.8 10,11.5 10.4,11.3 10.7,11 11.1,10.7 11.4,10.3 11.8,9.9 12,9.5 12.2,9.1 12.2,9.8 
	12,10.4 11.8,11 11.5,11.5 11.1,12.1 10.7,12.5 10.3,13 9.8,13.4 9.3,13.8 8.9,14.2 8.4,14.6 7.9,15 7.5,15.5 7,15.9 6.7,16.4 "/>
<polygon class="st0" points="6.3,16.9 6.7,16.4 7,15.9 7.5,15.5 7.9,15 8.4,14.6 8.9,14.2 9.3,13.8 9.8,13.4 10.3,13 10.7,12.5 
	11.1,12.1 11.5,11.5 11.8,11 12,10.4 12.2,9.8 12.2,9.1 12,9.5 11.8,9.9 11.4,10.3 11.1,10.7 10.7,11 10.4,11.3 10,11.5 9.6,11.8 
	9.2,12.1 8.8,12.4 8.5,12.7 8.1,13.1 7.8,13.5 7.5,13.9 7.3,14.3 7.1,14.8 7,14.8 7,14.8 7.1,14.4 7.2,13.9 7.4,13.5 7.5,13.1 
	7.7,12.7 7.8,12.3 7.9,11.9 7.9,11.5 8,11.3 8,11.1 8.1,11 8.1,10.8 8.2,10.4 8.3,10 8.4,9.7 8.5,9.3 8.7,9 8.9,8.6 9.1,8.4 
	9.3,8.1 9.8,7.7 9.4,7.8 9,7.9 8.6,8.2 8.3,8.4 7.9,8.7 7.7,9 7.4,9.4 7.1,9.7 6.6,10.5 6.4,11.4 6.3,12.3 6.3,13.2 6.3,14.2 
	6.4,15.1 6.4,16 "/>
<polygon points="49.2,16.3 48.9,15.9 48.7,15.6 48.4,15.3 48.1,15 47.8,14.7 47.5,14.4 47.1,14.2 46.8,13.9 46.5,13.7 46.1,13.4 
	45.8,13.1 45.5,12.8 45.2,12.6 44.9,12.3 44.6,12 44.3,11.7 44.1,11.3 43.9,11 43.7,10.6 43.6,10.1 43.4,9.7 43.3,9.3 43.3,8.9 
	43.4,9.1 43.6,9.4 43.8,9.7 44,10 44.2,10.2 44.5,10.4 44.8,10.7 45,10.9 45.6,11.2 46.1,11.5 46.6,11.9 47.1,12.3 47.5,12.8 
	48,13.3 48.3,13.8 48.6,14.4 48.6,14.4 48.6,14.4 48.6,14.4 48.7,14.4 48.7,14.4 48.5,13.9 48.3,13.4 48.1,12.9 48,12.4 47.8,11.9 
	47.7,11.5 47.6,11 47.4,10.4 47.3,10 47.2,9.5 47,9.1 46.8,8.6 46.6,8.3 46.3,7.9 46,7.6 45.6,7.4 46,7.5 46.4,7.6 46.7,7.8 47,8 
	47.4,8.2 47.7,8.5 47.9,8.8 48.2,9.1 48.5,9.5 48.8,9.9 49,10.4 49.2,11 49.3,11.5 49.3,12.1 49.4,12.6 49.3,13.2 49.3,14.1 
	49.3,14.9 49.3,15.8 49.4,16.6 49.4,16.6 "/>
<polygon class="st0" points="49.4,16.6 49.3,15.8 49.3,14.9 49.3,14.1 49.3,13.2 49.4,12.6 49.3,12.1 49.3,11.5 49.2,11 49,10.4 
	48.8,9.9 48.5,9.5 48.2,9.1 47.9,8.8 47.7,8.5 47.4,8.2 47,8 46.7,7.8 46.4,7.6 46,7.5 45.6,7.4 46,7.6 46.3,7.9 46.6,8.3 46.8,8.6 
	47,9.1 47.2,9.5 47.3,10 47.4,10.4 47.6,11 47.7,11.5 47.8,11.9 48,12.4 48.1,12.9 48.3,13.4 48.5,13.9 48.7,14.4 48.7,14.4 
	48.6,14.4 48.6,14.4 48.6,14.4 48.6,14.4 48.3,13.8 48,13.3 47.5,12.8 47.1,12.3 46.6,11.9 46.1,11.5 45.6,11.2 45,10.9 44.8,10.7 
	44.5,10.4 44.2,10.2 44,10 43.8,9.7 43.6,9.4 43.4,9.1 43.3,8.9 43.3,9.3 43.4,9.7 43.6,10.1 43.7,10.6 43.9,11 44.1,11.3 
	44.3,11.7 44.6,12 44.9,12.3 45.2,12.6 45.5,12.8 45.8,13.1 46.1,13.4 46.5,13.7 46.8,13.9 47.1,14.2 47.5,14.4 47.8,14.7 48.1,15 
	48.4,15.3 48.7,15.6 48.9,15.9 49.2,16.3 "/>
<polygon class="st1" points="32.6,15.8 32.6,15.7 32.6,15.7 32.6,15.7 32.5,15.6 32.1,15.3 31.7,15 31.1,14.8 30.6,14.5 30.1,14.3 
	29.5,14.2 28.9,14.1 28.3,14 28.3,13.4 28.3,12.7 28.3,12.1 28.3,11.5 28.3,11.5 28.3,11.5 28.7,11.5 29.2,11.6 29.6,11.7 30,11.8 
	30.4,11.9 30.8,12 31.2,12.2 31.6,12.3 32,12.4 32.4,12.6 32.7,12.8 33.1,13 33.4,13.2 33.8,13.5 34.1,13.7 34.3,13.9 34.4,13.9 
	34.5,14 34.5,14 34.5,14 34.3,14.2 34,14.4 33.8,14.6 33.5,14.8 33.3,15.1 33.1,15.3 32.9,15.6 "/>
<polygon class="st0" points="32.6,15.8 32.9,15.6 33.1,15.3 33.3,15.1 33.5,14.8 33.8,14.6 34,14.4 34.3,14.2 34.5,14 34.5,14 
	34.5,14 34.4,13.9 34.3,13.9 34.1,13.7 33.8,13.5 33.4,13.2 33.1,13 32.7,12.8 32.4,12.6 32,12.4 31.6,12.3 31.2,12.2 30.8,12 
	30.4,11.9 30,11.8 29.6,11.7 29.2,11.6 28.7,11.5 28.3,11.5 28.3,11.5 28.3,11.5 28.3,12.1 28.3,12.7 28.3,13.4 28.3,14 28.9,14.1 
	29.5,14.2 30.1,14.3 30.6,14.5 31.1,14.8 31.7,15 32.1,15.3 32.5,15.6 32.6,15.7 32.6,15.7 32.6,15.7 "/>
<polygon class="st1" points="23.1,15.8 22.9,15.6 22.7,15.3 22.5,15.1 22.2,14.9 22,14.6 21.8,14.4 21.5,14.2 21.3,14 21.3,14 
	21.4,14 21.4,13.9 21.5,13.9 21.8,13.6 22.1,13.4 22.4,13.2 22.7,13 23,12.8 23.4,12.6 23.8,12.4 24.2,12.3 24.5,12.2 24.9,12 
	25.3,11.9 25.7,11.8 26.1,11.7 26.5,11.6 26.9,11.5 27.4,11.5 27.3,12.1 27.3,12.8 27.3,13.4 27.3,14.1 27.1,14 26.9,14.1 
	26.7,14.1 26.5,14.1 26.2,14.2 26,14.2 25.8,14.3 25.6,14.4 25.2,14.5 24.9,14.6 24.6,14.8 24.2,14.9 24,15.1 23.7,15.3 23.4,15.5 
	23.2,15.8 23.2,15.8 "/>
<polygon class="st0" points="23.2,15.8 23.2,15.8 23.2,15.8 23.4,15.5 23.7,15.3 24,15.1 24.2,14.9 24.6,14.8 24.9,14.6 25.2,14.5 
	25.6,14.4 25.8,14.3 26,14.2 26.2,14.2 26.5,14.1 26.7,14.1 26.9,14.1 27.1,14 27.3,14.1 27.3,13.4 27.3,12.8 27.3,12.1 27.4,11.5 
	26.9,11.5 26.5,11.6 26.1,11.7 25.7,11.8 25.3,11.9 24.9,12 24.5,12.2 24.2,12.3 23.8,12.4 23.4,12.6 23,12.8 22.7,13 22.4,13.2 
	22.1,13.4 21.8,13.6 21.5,13.9 21.4,13.9 21.4,14 21.3,14 21.3,14 21.5,14.2 21.8,14.4 22,14.6 22.2,14.9 22.5,15.1 22.7,15.3 
	22.9,15.6 23.1,15.8 "/>
<polygon class="st1" points="20.6,13.4 20.6,13.4 20.4,13.1 20.2,12.9 19.9,12.6 19.7,12.4 19.4,12.2 19.2,11.9 19,11.8 18.7,11.6 
	18.7,11.6 18.7,11.5 18.7,11.5 19,11.4 19.2,11.3 19.4,11.1 19.6,11 19.8,10.8 20,10.6 20.2,10.4 20.4,10.3 20.8,10.1 21.1,9.9 
	21.5,9.7 21.9,9.5 22.3,9.3 22.7,9.1 23.2,8.9 23.6,8.8 24.1,8.6 24.5,8.5 25,8.4 25.4,8.3 25.9,8.2 26.4,8.2 26.8,8.1 27.3,8.1 
	27.3,8.1 27.3,8.7 27.3,9.4 27.3,10 27.3,10.6 27,10.6 26.7,10.6 26.4,10.6 26.1,10.7 25.8,10.7 25.5,10.8 25.2,10.9 25,11 
	24.6,11.1 24.3,11.1 24,11.3 23.7,11.4 23.4,11.5 23.1,11.6 22.8,11.8 22.6,11.9 22.3,12.1 22,12.2 21.8,12.4 21.6,12.6 21.3,12.8 
	21.1,13 20.8,13.2 20.6,13.4 20.6,13.4 "/>
<polygon class="st0" points="20.6,13.4 20.6,13.4 20.6,13.4 20.6,13.4 20.8,13.2 21.1,13 21.3,12.8 21.6,12.6 21.8,12.4 22,12.2 
	22.3,12.1 22.6,11.9 22.8,11.8 23.1,11.6 23.4,11.5 23.7,11.4 24,11.3 24.3,11.1 24.6,11.1 25,11 25.2,10.9 25.5,10.8 25.8,10.7 
	26.1,10.7 26.4,10.6 26.7,10.6 27,10.6 27.3,10.6 27.3,10 27.3,9.4 27.3,8.7 27.3,8.1 27.3,8.1 26.8,8.1 26.4,8.2 25.9,8.2 
	25.4,8.3 25,8.4 24.5,8.5 24.1,8.6 23.6,8.8 23.2,8.9 22.7,9.1 22.3,9.3 21.9,9.5 21.5,9.7 21.1,9.9 20.8,10.1 20.4,10.3 20.2,10.4 
	20,10.6 19.8,10.8 19.6,11 19.4,11.1 19.2,11.3 19,11.4 18.7,11.5 18.7,11.5 18.7,11.6 18.7,11.6 19,11.8 19.2,11.9 19.4,12.2 
	19.7,12.4 19.9,12.6 20.2,12.9 20.4,13.1 "/>
<polygon points="8.7,11.4 8.9,10.9 9,10.3 9.1,9.8 9.3,9.4 9.5,8.9 9.7,8.5 10,8.2 10.3,7.8 10.6,7.5 10.9,7.2 11.3,6.9 11.7,6.6 
	12,6.4 12.5,6.2 12.9,6 13.3,5.8 13.8,5.6 14.2,5.4 14.7,5.3 14.1,5.8 13.6,6.3 13.2,6.8 12.8,7.3 12.4,7.8 12,8.4 11.6,8.9 
	11.2,9.5 10.9,9.8 10.5,10.1 10.2,10.4 9.9,10.7 9.5,11 9.2,11.2 8.9,11.5 8.5,11.8 8.5,11.9 "/>
<polygon class="st0" points="8.5,11.8 8.9,11.5 9.2,11.2 9.5,11 9.9,10.7 10.2,10.4 10.5,10.1 10.9,9.8 11.2,9.5 11.6,8.9 12,8.4 
	12.4,7.8 12.8,7.3 13.2,6.8 13.6,6.3 14.1,5.8 14.7,5.3 14.2,5.4 13.8,5.6 13.3,5.8 12.9,6 12.5,6.2 12,6.4 11.7,6.6 11.3,6.9 
	10.9,7.2 10.6,7.5 10.3,7.8 10,8.2 9.7,8.5 9.5,8.9 9.3,9.4 9.1,9.8 9,10.3 8.9,10.9 8.7,11.4 8.5,11.9 "/>
<polygon points="46.6,11.2 46.1,10.8 45.7,10.5 45.3,10.1 44.9,9.7 44.5,9.3 44.1,8.9 43.8,8.4 43.4,8 43,7.6 42.7,7.1 42.3,6.7 
	42,6.3 41.6,5.8 41.2,5.4 40.8,5 41.4,5.2 42,5.4 42.6,5.6 43.1,5.9 43.6,6.2 44.1,6.5 44.5,6.9 44.9,7.3 45.3,7.7 45.7,8.2 46,8.7 
	46.2,9.2 46.5,9.7 46.7,10.3 46.9,10.9 47,11.5 "/>
<polygon class="st0" points="47,11.5 46.9,10.9 46.7,10.3 46.5,9.7 46.2,9.2 46,8.7 45.7,8.2 45.3,7.7 44.9,7.3 44.5,6.9 44.1,6.5 
	43.6,6.2 43.1,5.9 42.6,5.6 42,5.4 41.4,5.2 40.8,5 41.2,5.4 41.6,5.8 42,6.3 42.3,6.7 42.7,7.1 43,7.6 43.4,8 43.8,8.4 44.1,8.9 
	44.5,9.3 44.9,9.7 45.3,10.1 45.7,10.5 46.1,10.8 46.6,11.2 "/>
<polygon class="st1" points="17.9,10.7 17.7,10.4 17.4,10.2 17.2,9.9 16.9,9.7 16.7,9.4 16.4,9.2 16.1,9.1 16.2,9 16.4,8.9 
	16.5,8.8 16.6,8.7 16.7,8.6 16.9,8.5 17,8.4 17.1,8.3 17.6,7.9 18.1,7.5 18.6,7.2 19.2,6.8 19.8,6.5 20.4,6.2 21,5.9 21.7,5.6 
	22.4,5.4 23,5.2 23.8,5 24.4,4.8 25.1,4.7 25.8,4.6 26.6,4.5 27.3,4.5 27.2,4.7 27.2,4.9 27.2,5.2 27.2,5.5 27.2,5.7 27.2,5.9 
	27.2,6.1 27.2,6.3 27.2,6.5 27.2,6.7 27.3,6.9 27.3,7.1 26.9,7.1 26.4,7.1 25.9,7.2 25.5,7.2 25,7.3 24.6,7.4 24.2,7.5 23.7,7.7 
	23.7,7.7 23.6,7.7 23.2,7.8 22.8,8 22.4,8.2 22.1,8.3 21.7,8.5 21.3,8.6 21,8.8 20.6,9 20.3,9.2 20,9.4 19.7,9.6 19.4,9.9 19,10.1 
	18.7,10.4 18.4,10.7 18.2,10.9 "/>
<polygon class="st0" points="18.2,10.9 18.4,10.7 18.7,10.4 19,10.1 19.4,9.9 19.7,9.6 20,9.4 20.3,9.2 20.6,9 21,8.8 21.3,8.6 
	21.7,8.5 22.1,8.3 22.4,8.2 22.8,8 23.2,7.8 23.6,7.7 23.7,7.7 23.7,7.7 24.2,7.5 24.6,7.4 25,7.3 25.5,7.2 25.9,7.2 26.4,7.1 
	26.9,7.1 27.3,7.1 27.3,6.9 27.2,6.7 27.2,6.5 27.2,6.3 27.2,6.1 27.2,5.9 27.2,5.7 27.2,5.5 27.2,5.2 27.2,4.9 27.2,4.7 27.3,4.5 
	26.6,4.5 25.8,4.6 25.1,4.7 24.4,4.8 23.8,5 23,5.2 22.4,5.4 21.7,5.6 21,5.9 20.4,6.2 19.8,6.5 19.2,6.8 18.6,7.2 18.1,7.5 
	17.6,7.9 17.1,8.3 17,8.4 16.9,8.5 16.7,8.6 16.6,8.7 16.5,8.8 16.4,8.9 16.2,9 16.1,9.1 16.4,9.2 16.7,9.4 16.9,9.7 17.2,9.9 
	17.4,10.2 17.7,10.4 17.9,10.7 "/>
<polygon class="st1" points="37.6,10.5 37.5,10.3 37.4,10.1 37.3,9.8 37.2,9.8 37.1,9.7 37,9.5 37,9.4 36.9,9.3 36.8,9.2 36.7,9.1 
	36.5,9.1 36.4,9 36.2,8.9 36.1,8.8 36,8.6 35.8,8.6 35.6,8.6 35.4,8.6 35.3,8.5 35.1,8.5 34.9,8.6 34.7,8.6 34.5,8.7 34.5,8.7 
	34.5,8.7 34.5,8.8 34.5,8.7 34,8.5 33.8,8.4 33.7,8.3 33.5,8.2 33.3,8.2 33.1,8.1 32.9,8 32.7,7.9 32.5,7.8 32.1,7.7 31.6,7.5 
	31.1,7.4 30.6,7.3 30.1,7.2 29.6,7.1 29.1,7.1 28.6,7.1 28.6,7.1 28.6,7.1 28.7,7 28.7,7 28.7,6.9 28.7,6.8 28.6,6.7 28.6,6.7 
	28.5,6.6 28.5,6.6 28.4,6.6 28.4,6.6 28.4,6.6 28.3,6.6 28.3,6.8 28.3,6.3 28.3,5.8 28.3,5.3 28.3,4.7 28.3,4.6 28.3,4.5 28.3,4.5 
	28.3,4.4 29,4.5 29.8,4.5 30.5,4.7 31.3,4.8 32,5 32.7,5.2 33.4,5.4 34.1,5.7 34.8,6 35.5,6.2 36.1,6.6 36.7,6.9 37.3,7.3 37.9,7.7 
	38.5,8.1 39,8.6 39.1,8.7 39.2,8.8 39.3,8.9 39.4,9 39.4,9 39.4,9 39.1,9.2 38.9,9.4 38.7,9.6 38.5,9.8 38.3,10 38.1,10.2 
	37.9,10.4 37.8,10.7 "/>
<polygon class="st0" points="37.8,10.7 37.9,10.4 38.1,10.2 38.3,10 38.5,9.8 38.7,9.6 38.9,9.4 39.1,9.2 39.4,9 39.4,9 39.4,9 
	39.3,8.9 39.2,8.8 39.1,8.7 39,8.6 38.5,8.1 37.9,7.7 37.3,7.3 36.7,6.9 36.1,6.6 35.5,6.2 34.8,6 34.1,5.7 33.4,5.4 32.7,5.2 32,5 
	31.3,4.8 30.5,4.7 29.8,4.5 29,4.5 28.3,4.4 28.3,4.5 28.3,4.5 28.3,4.6 28.3,4.7 28.3,5.3 28.3,5.8 28.3,6.3 28.3,6.8 28.3,6.6 
	28.4,6.6 28.4,6.6 28.4,6.6 28.5,6.6 28.5,6.6 28.6,6.7 28.6,6.7 28.7,6.8 28.7,6.9 28.7,7 28.7,7 28.6,7.1 28.6,7.1 28.6,7.1 
	29.1,7.1 29.6,7.1 30.1,7.2 30.6,7.3 31.1,7.4 31.6,7.5 32.1,7.7 32.5,7.8 32.7,7.9 32.9,8 33.1,8.1 33.3,8.2 33.5,8.2 33.7,8.3 
	33.8,8.4 34,8.5 34.5,8.7 34.5,8.7 34.5,8.7 34.5,8.7 34.5,8.7 34.7,8.6 34.9,8.6 35.1,8.5 35.3,8.5 35.4,8.6 35.6,8.6 35.8,8.6 
	36,8.6 36.1,8.8 36.2,8.9 36.4,9 36.5,9.1 36.7,9.1 36.8,9.2 36.9,9.3 37,9.4 37,9.5 37.1,9.7 37.2,9.8 37.3,9.8 37.4,10.1 
	37.5,10.3 37.6,10.5 "/>
<polygon points="36.7,8.8 36.5,8.8 36.3,8.7 36.3,8.6 36.2,8.6 36.1,8.4 35.9,8.4 35.8,8.3 35.8,8.2 35.8,8.2 35.8,8 35.8,8 35.8,8 
	35.9,8 35.9,8 35.9,8 36,8 36.1,8 36.1,8 36.2,8 36.3,8 36.5,8 36.6,8.1 36.7,8.2 36.7,8.4 36.7,8.6 36.8,8.7 36.8,8.8 36.8,8.8 "/>
<polygon class="st0" points="36.5,8.8 36.7,8.8 36.7,8.8 36.8,8.8 36.8,8.8 36.8,8.7 36.7,8.6 36.7,8.4 36.7,8.2 36.6,8.1 36.5,8 
	36.3,8 36.2,8 36.1,8 36.1,8 36,8 35.9,8 35.9,8 35.9,8 35.8,8 35.8,8 35.8,8 35.8,8.2 35.8,8.2 35.8,8.3 35.9,8.4 36.1,8.4 
	36.2,8.6 36.3,8.6 36.3,8.7 "/>
<polygon points="29.3,6.9 29.1,6.8 28.9,6.7 28.7,6.6 28.6,6.5 28.6,6.4 28.7,6.4 28.7,6.4 28.7,6.3 28.8,6.3 28.9,6.3 28.9,6.3 
	29,6.4 29.1,6.3 29.3,6.2 29.5,6.2 29.6,6.1 29.8,6 30,5.9 30.2,5.9 30.3,5.8 30.5,5.8 30.7,5.8 30.9,5.8 31,5.9 31.2,6 31.3,6 
	31.5,6.1 31.6,6.2 31.6,6.2 31.7,6.3 31.7,6.3 31.7,6.4 31.7,6.4 31.7,6.4 31.7,6.4 31.5,6.5 31.4,6.6 31.3,6.7 31.1,6.7 30.9,6.7 
	30.7,6.7 30.5,6.7 30.3,6.7 30.2,6.7 30.1,6.8 30,6.8 29.9,6.9 29.7,6.9 29.6,6.9 29.4,6.9 "/>
<polygon class="st0" points="29.3,6.9 29.4,6.9 29.6,6.9 29.7,6.9 29.9,6.9 30,6.8 30.1,6.8 30.2,6.7 30.3,6.7 30.5,6.7 30.7,6.7 
	30.9,6.7 31.1,6.7 31.3,6.7 31.4,6.6 31.5,6.5 31.7,6.4 31.7,6.4 31.7,6.4 31.7,6.4 31.7,6.3 31.7,6.3 31.6,6.2 31.6,6.2 31.5,6.1 
	31.3,6 31.2,6 31,5.9 30.9,5.8 30.7,5.8 30.5,5.8 30.3,5.8 30.2,5.9 30,5.9 29.8,6 29.6,6.1 29.5,6.2 29.3,6.2 29.1,6.3 29,6.4 
	28.9,6.3 28.9,6.3 28.8,6.3 28.7,6.3 28.7,6.4 28.7,6.4 28.6,6.4 28.6,6.5 28.7,6.6 28.9,6.7 29.1,6.8 "/>
</svg>
